<svg xmlns="http://www.w3.org/2000/svg" viewBox="1072 369 334 271"><defs><style>.a{fill:#15b2ce;opacity:0.7;}.b{opacity:0.152;}</style></defs><g transform="translate(112)"><rect class="a" width="334" height="271" rx="5" transform="translate(960 369)"/><g class="b" transform="matrix(0.999, -0.035, 0.035, 0.999, 995.889, 372.209)"><g transform="translate(0 44.882)"><g transform="translate(0 0)"><path d="M229.755,44.882H66.035A22.806,22.806,0,0,0,43.3,67.621v7.959L16.919,82.856A22.352,22.352,0,0,0,3.049,93.316,22.888,22.888,0,0,0,.775,110.6l31.834,118.7a22.352,22.352,0,0,0,10.46,13.871,22.588,22.588,0,0,0,11.369,3.183,26.214,26.214,0,0,0,5.912-.682L164.494,217.7h65.26a22.806,22.806,0,0,0,22.739-22.739V67.621A22.806,22.806,0,0,0,229.755,44.882ZM58.077,236.8a13.934,13.934,0,0,1-10.46-1.364,13.293,13.293,0,0,1-6.367-8.413L9.415,108.323a13.934,13.934,0,0,1,1.364-10.46A13.293,13.293,0,0,1,19.193,91.5L43.3,84.9V194.958A22.806,22.806,0,0,0,66.035,217.7h63.214ZM243.4,194.958A13.683,13.683,0,0,1,229.755,208.6H66.035a13.683,13.683,0,0,1-13.643-13.643V67.621A13.683,13.683,0,0,1,66.035,53.978h163.72A13.683,13.683,0,0,1,243.4,67.621V132.2l-21.6-21.6a8.792,8.792,0,0,0-12.734,0L156.99,162.442l-.227-.227-26.377-26.377a9.2,9.2,0,0,0-12.734,0L95.368,158.121a4.5,4.5,0,1,0,6.367,6.367L124.019,142.2,150.4,168.581l.227.227-18.418,18.418a4.4,4.4,0,0,0,0,6.367,4.4,4.4,0,0,0,6.367,0l76.857-76.63,27.059,27.059c.227.227.682.455.91.682Z" transform="translate(0 -44.882)"/><path d="M144.075,262.246l-4.548,4.548a4.4,4.4,0,0,0,0,6.367,4.4,4.4,0,0,0,6.367,0l4.548-4.548a4.5,4.5,0,0,0-6.367-6.367Z" transform="translate(-59.621 -138.092)"/><path d="M169.641,115.621A22.739,22.739,0,1,0,146.9,138.36,22.806,22.806,0,0,0,169.641,115.621ZM146.9,129.264a13.643,13.643,0,1,1,13.643-13.643A13.683,13.683,0,0,1,146.9,129.264Z" transform="translate(-53.58 -65.595)"/></g></g></g></g></svg>