<svg xmlns="http://www.w3.org/2000/svg" viewBox="1422 371 535 271"><defs><style>.a{fill:#c31d4f;opacity:0.864;}.b{opacity:0.148;}.c,.f,.g,.j{fill:none;}.c{stroke:#08090a;}.c,.g{stroke-width:6px;}.d{fill:#070808;}.d,.e{font-size:63px;font-family:HelveticaNeue-Bold, Helvetica Neue;font-weight:700;}.e{fill:#030303;}.f{stroke:#050505;stroke-width:4px;}.g{stroke:#000;}.h{fill:#0a0a0a;}.i{stroke:none;}</style></defs><g transform="translate(112)"><rect class="a" width="535" height="271" rx="5" transform="translate(1310 371)"/><g class="b" transform="translate(109.577 -309.449) rotate(11)"><g transform="translate(1589.989 502.163)"><g class="c" transform="translate(0)"><circle class="i" cx="51.251" cy="51.251" r="51.251"/><circle class="j" cx="51.251" cy="51.251" r="48.251"/></g><text class="d" transform="translate(33.718 74.487)"><tspan x="0" y="0">$</tspan></text></g><g transform="translate(1474 446.867)"><g class="c"><circle class="i" cx="51.251" cy="51.251" r="51.251"/><circle class="j" cx="51.251" cy="51.251" r="48.251"/></g><text class="e" transform="translate(30.672 74.487)"><tspan x="0" y="0">Y</tspan></text><path class="f" d="M3135,704h29.671" transform="translate(-3097.236 -643.308)"/></g><g transform="translate(1562.962 400.97)"><path class="g" d="M1675.021,82.782s44.931-10.922,65.7,9.343,14.515,58.651,14.515,58.651" transform="translate(-1625.98 -54.59)"/><path class="h" d="M1882.067,58.632v57.932L1828.96,86.716Z" transform="translate(-1828.96 -58.632)"/></g><g transform="translate(1609.477 652.256) rotate(180)"><path class="g" d="M0,2.939S44.931-7.983,65.7,12.282,80.212,70.933,80.212,70.933" transform="translate(49.04 25.252)"/><path class="h" d="M53.107,0V57.932L0,28.084Z"/></g></g></g></svg>