<svg xmlns="http://www.w3.org/2000/svg" viewBox="1072 658 535 278"><defs><style>.a{fill:#4c595a;}.b{opacity:0.136;}.c{fill:#010002;}</style></defs><g transform="translate(112)"><rect class="a" width="535" height="278" rx="5" transform="translate(960 658)"/><g class="b" transform="translate(-1773 -80.909)"><g transform="translate(2742 765.576)"><g transform="translate(0)"><g transform="translate(47.836 65.305)"><path d="M61.454,12.31a.749.749,0,0,0-.781.711v.552h-.538a19.22,19.22,0,0,1,1.142-4.892.659.659,0,0,0-.1-.644.807.807,0,0,0-.635-.3H55.865l.287-.771a2.383,2.383,0,0,0-1.015-2.841L56.2,1.273A.654.654,0,0,0,56.16.73a.763.763,0,0,0-.45-.359L54.629.038a.8.8,0,0,0-.99.445L52.577,3.337a2.955,2.955,0,0,0-1.319.257,2.57,2.57,0,0,0-1.383,1.438L48.867,7.741H42.95a.807.807,0,0,0-.635.3.659.659,0,0,0-.1.644,19.224,19.224,0,0,1,1.142,4.892h-.538v-.552a.784.784,0,0,0-1.562,0v2.527a.784.784,0,0,0,1.562,0V15h.625q.005.219.005.439v6.931a2.75,2.75,0,0,0,2.866,2.61H57.178a2.75,2.75,0,0,0,2.866-2.61V15.435q0-.22.005-.439h.625v.552a.784.784,0,0,0,1.562,0V13.021A.749.749,0,0,0,61.454,12.31Zm-10.1-6.821a1.107,1.107,0,0,1,.6-.619,1.278,1.278,0,0,1,.9-.054h0l1.081.333a1.057,1.057,0,0,1,.74,1.364l-.457,1.228h-3.7Zm7.127,16.877a1.251,1.251,0,0,1-1.3,1.187H46.31a1.251,1.251,0,0,1-1.3-1.187V15.435a20.389,20.389,0,0,0-.989-6.272H59.471a20.389,20.389,0,0,0-.989,6.272v6.931Z" transform="translate(-41.253 0)"/></g><g transform="translate(199.23 2.592)"><path d="M61.454,12.31a.749.749,0,0,0-.781.711v.552h-.538a19.22,19.22,0,0,1,1.142-4.892.659.659,0,0,0-.1-.644.807.807,0,0,0-.635-.3H55.865l.287-.771a2.383,2.383,0,0,0-1.015-2.841L56.2,1.273A.654.654,0,0,0,56.16.73a.763.763,0,0,0-.45-.359L54.629.038a.8.8,0,0,0-.99.445L52.577,3.337a2.955,2.955,0,0,0-1.319.257,2.57,2.57,0,0,0-1.383,1.438L48.867,7.741H42.95a.807.807,0,0,0-.635.3.659.659,0,0,0-.1.644,19.224,19.224,0,0,1,1.142,4.892h-.538v-.552a.784.784,0,0,0-1.562,0v2.527a.784.784,0,0,0,1.562,0V15h.625q.005.219.005.439v6.931a2.75,2.75,0,0,0,2.866,2.61H57.178a2.75,2.75,0,0,0,2.866-2.61V15.435q0-.22.005-.439h.625v.552a.784.784,0,0,0,1.562,0V13.021A.749.749,0,0,0,61.454,12.31Zm-10.1-6.821a1.107,1.107,0,0,1,.6-.619,1.278,1.278,0,0,1,.9-.054h0l1.081.333a1.057,1.057,0,0,1,.74,1.364l-.457,1.228h-3.7Zm7.127,16.877a1.251,1.251,0,0,1-1.3,1.187H46.31a1.251,1.251,0,0,1-1.3-1.187V15.435a20.389,20.389,0,0,0-.989-6.272H59.471a20.389,20.389,0,0,0-.989,6.272v6.931Z" transform="translate(-41.253 0)"/></g><g transform="translate(6.308 98.139)"><path d="M24.174,46.527h-.607v-.554h.01a.675.675,0,1,0,0-1.344h-1.4a.707.707,0,0,0-.738.672.7.7,0,0,0,.654.667v.559H20.905V42.063a.692.692,0,0,0-.6-.66l-3.445-.594a37.611,37.611,0,0,0-12.814,0L.6,41.4a.692.692,0,0,0-.6.66V52.335A.692.692,0,0,0,.6,53l3.445.594q1.141.2,2.287.323l-1.377,3.72a.66.66,0,0,0,.464.851.805.805,0,0,0,.236.035.737.737,0,0,0,.7-.458l.385-1.039h7.428l.385,1.039a.736.736,0,0,0,.7.458.8.8,0,0,0,.236-.035.66.66,0,0,0,.464-.851l-1.377-3.72q1.145-.126,2.287-.323L20.3,53a.692.692,0,0,0,.6-.66V47.871h3.268a.328.328,0,0,1,.342.311v.571a.741.741,0,0,0,1.476,0v-.571A1.744,1.744,0,0,0,24.174,46.527Zm-9.319,6V41.874q.288.035.575.075v10.5Q15.142,52.489,14.855,52.524Zm-9.379-.075v-10.5q.287-.04.575-.075v10.65Q5.763,52.488,5.476,52.449Zm11.43-10.264,2.524.435v9.159l-2.524.435Zm-3.527,10.49a35.923,35.923,0,0,1-5.853,0V41.723a35.923,35.923,0,0,1,5.853,0ZM1.476,42.62,4,42.184V52.213l-2.524-.435Zm8.977,11.519q1.307,0,2.613-.092l.6,1.631H7.236l.6-1.631Q9.145,54.138,10.453,54.139Z" transform="translate(0 -40.259)"/></g><g transform="translate(128.264)"><path d="M24.174,46.527h-.607v-.554h.01a.675.675,0,1,0,0-1.344h-1.4a.707.707,0,0,0-.738.672.7.7,0,0,0,.654.667v.559H20.905V42.063a.692.692,0,0,0-.6-.66l-3.445-.594a37.611,37.611,0,0,0-12.814,0L.6,41.4a.692.692,0,0,0-.6.66V52.335A.692.692,0,0,0,.6,53l3.445.594q1.141.2,2.287.323l-1.377,3.72a.66.66,0,0,0,.464.851.805.805,0,0,0,.236.035.737.737,0,0,0,.7-.458l.385-1.039h7.428l.385,1.039a.736.736,0,0,0,.7.458.8.8,0,0,0,.236-.035.66.66,0,0,0,.464-.851l-1.377-3.72q1.145-.126,2.287-.323L20.3,53a.692.692,0,0,0,.6-.66V47.871h3.268a.328.328,0,0,1,.342.311v.571a.741.741,0,0,0,1.476,0v-.571A1.744,1.744,0,0,0,24.174,46.527Zm-9.319,6V41.874q.288.035.575.075v10.5Q15.142,52.489,14.855,52.524Zm-9.379-.075v-10.5q.287-.04.575-.075v10.65Q5.763,52.488,5.476,52.449Zm11.43-10.264,2.524.435v9.159l-2.524.435Zm-3.527,10.49a35.923,35.923,0,0,1-5.853,0V41.723a35.923,35.923,0,0,1,5.853,0ZM1.476,42.62,4,42.184V52.213l-2.524-.435Zm8.977,11.519q1.307,0,2.613-.092l.6,1.631H7.236l.6-1.631Q9.145,54.138,10.453,54.139Z" transform="translate(0 -40.259)"/></g><g transform="translate(170.844 77.752)"><path d="M38.828,14.778c-.127-.492-.441-1.7-.631-2.428-.09-.343-.152-.582-.152-.582-.185-.728-.5-1.937-.63-2.428-.186-.721-1.15-.854-1.679-.741L18.157,12.378c-2.07.448-3.19,3.314-4.644,3.627L5.5,17.728l.123.475a11.007,11.007,0,0,0-2.738,2.026c-.644.745-.457,2.345-.242,3.387-.653-.043-1.152-.086-1.152-.086S-.951,29.052.414,31.094s3.847,3.372,3.847,4.65v3.984c0,1.364-2.738,2.194-3.9,2.492-.25.069-.177.138,0,.138h8.46c.177,0,.251-.069,0-.138-1.167-.3-3.774-1.129-3.774-2.492,0-.027,0-.055,0-.082h0v-3.9c0-1.278,2.483-2.609,3.847-4.651S7.808,23.53,7.808,23.53s-.965.084-1.972.134c-.078-.809-.212-1.793-.346-2.535-.213-1.163.285-1.445.494-1.513l.171.661,8.019-1.725c1.453-.312,3.863,1.8,5.932,1.352s17.052-3.668,17.581-3.781S39.014,15.5,38.828,14.778ZM2.9,32.524a9.389,9.389,0,0,1-1.166-1.278,5.128,5.128,0,0,1-.513-.843,3.015,3.015,0,0,1-.189-.509,2.06,2.06,0,0,1-.068-.51,9.5,9.5,0,0,1,.211-1.9,14.856,14.856,0,0,1,.395-1.6A16,16,0,0,1,2.1,24.356s-.062.64-.175,1.587c-.057.472-.125,1.023-.2,1.611A13.981,13.981,0,0,0,1.6,29.369a1.619,1.619,0,0,0,.049.435,2.648,2.648,0,0,0,.14.385,5.7,5.7,0,0,0,.42.784,16.037,16.037,0,0,0,.966,1.335c.609.768,1.049,1.271,1.049,1.271A11.394,11.394,0,0,1,2.9,32.524ZM36.309,15.111c-.588.167-1.423.437-2.437.708-2.024.557-4.744,1.223-7.481,1.816-1.371.284-2.744.571-4.037.809-.649.115-1.274.226-1.868.337a5.474,5.474,0,0,1-.978.063c-.3-.042-.593-.1-.863-.16l-.739-.243-.633-.277c-.386-.185-.717-.353-.98-.5a8.044,8.044,0,0,1-.8-.5s.324.136.894.341c.283.107.634.223,1.037.345s.862.219,1.357.315c.245.024.505.045.76.057a5.576,5.576,0,0,0,.769-.118c.584-.146,1.2-.3,1.835-.46,1.275-.314,2.642-.616,4.009-.922,2.74-.585,5.5-1.1,7.583-1.421,1.039-.171,1.917-.272,2.528-.361s.964-.113.964-.113S36.9,14.932,36.309,15.111Z" transform="translate(0.001 -8.564)"/></g><g transform="translate(0 51.901)"><path d="M38.828,14.778c-.127-.492-.441-1.7-.631-2.428-.09-.343-.152-.582-.152-.582-.185-.728-.5-1.937-.63-2.428-.186-.721-1.15-.854-1.679-.741L18.157,12.378c-2.07.448-3.19,3.314-4.644,3.627L5.5,17.728l.123.475a11.007,11.007,0,0,0-2.738,2.026c-.644.745-.457,2.345-.242,3.387-.653-.043-1.152-.086-1.152-.086S-.951,29.052.414,31.094s3.847,3.372,3.847,4.65v3.984c0,1.364-2.738,2.194-3.9,2.492-.25.069-.177.138,0,.138h8.46c.177,0,.251-.069,0-.138-1.167-.3-3.774-1.129-3.774-2.492,0-.027,0-.055,0-.082h0v-3.9c0-1.278,2.483-2.609,3.847-4.651S7.808,23.53,7.808,23.53s-.965.084-1.972.134c-.078-.809-.212-1.793-.346-2.535-.213-1.163.285-1.445.494-1.513l.171.661,8.019-1.725c1.453-.312,3.863,1.8,5.932,1.352s17.052-3.668,17.581-3.781S39.014,15.5,38.828,14.778ZM2.9,32.524a9.389,9.389,0,0,1-1.166-1.278,5.128,5.128,0,0,1-.513-.843,3.015,3.015,0,0,1-.189-.509,2.06,2.06,0,0,1-.068-.51,9.5,9.5,0,0,1,.211-1.9,14.856,14.856,0,0,1,.395-1.6A16,16,0,0,1,2.1,24.356s-.062.64-.175,1.587c-.057.472-.125,1.023-.2,1.611A13.981,13.981,0,0,0,1.6,29.369a1.619,1.619,0,0,0,.049.435,2.648,2.648,0,0,0,.14.385,5.7,5.7,0,0,0,.42.784,16.037,16.037,0,0,0,.966,1.335c.609.768,1.049,1.271,1.049,1.271A11.394,11.394,0,0,1,2.9,32.524ZM36.309,15.111c-.588.167-1.423.437-2.437.708-2.024.557-4.744,1.223-7.481,1.816-1.371.284-2.744.571-4.037.809-.649.115-1.274.226-1.868.337a5.474,5.474,0,0,1-.978.063c-.3-.042-.593-.1-.863-.16l-.739-.243-.633-.277c-.386-.185-.717-.353-.98-.5a8.044,8.044,0,0,1-.8-.5s.324.136.894.341c.283.107.634.223,1.037.345s.862.219,1.357.315c.245.024.505.045.76.057a5.576,5.576,0,0,0,.769-.118c.584-.146,1.2-.3,1.835-.46,1.275-.314,2.642-.616,4.009-.922,2.74-.585,5.5-1.1,7.583-1.421,1.039-.171,1.917-.272,2.528-.361s.964-.113.964-.113S36.9,14.932,36.309,15.111Z" transform="translate(0.001 -8.564)"/></g><g transform="translate(12.616 3.91)"><g transform="translate(0 0)"><path d="M60.847,178.64a4.12,4.12,0,0,0,3.455,4.808,4.521,4.521,0,0,0,5.352-3.138l.739-6.169c-2.427-1.2-1.537,3.771-5.729,2.948C61.785,176.521,61,178.2,60.847,178.64Z" transform="translate(-56.846 -159.373)"/><path d="M53.4,52.9a1.113,1.113,0,0,0-1.375-.628L49,53.19l-1.9-5.207a7.627,7.627,0,0,0,3.634-3.251,6.692,6.692,0,0,0,.4-5.65L46.174,28.627l-13.206,4L33.85,35.9,22.563,33.676,18.841,44.641a6.712,6.712,0,0,0,1.1,5.493,7.838,7.838,0,0,0,4,2.873l-1.274,5.364-3.109-.611a1.1,1.1,0,0,0-1.292.759.994.994,0,0,0,.834,1.177l4.162.819s0,0,.007,0h.015l4.163.819a1.18,1.18,0,0,0,.231.022,1.07,1.07,0,0,0,1.061-.781A1,1,0,0,0,27.9,59.4l-3.111-.613,1.269-5.342c.208.015.416.031.625.031a7.917,7.917,0,0,0,7.83-5.831l.882-6.024.579,2.146a7.967,7.967,0,0,0,7.6,4.992,8.675,8.675,0,0,0,1.473-.138l1.9,5.192-3.017.913a.973.973,0,0,0-.69,1.252,1.086,1.086,0,0,0,1.032.678,1.164,1.164,0,0,0,.343-.051l8.1-2.453A.974.974,0,0,0,53.4,52.9ZM32.373,47.308a5.935,5.935,0,0,1-6.934,4.067h0a5.82,5.82,0,0,1-3.671-2.313,4.868,4.868,0,0,1-.823-3.918L24.052,36,33.746,37.9Zm5.69-4.088-2.5-9.289,9.412-2.852,4.14,8.708a4.857,4.857,0,0,1-.319,4.057,5.669,5.669,0,0,1-3.377,2.662,6.3,6.3,0,0,1-1.845.275A5.792,5.792,0,0,1,38.063,43.22Z" transform="translate(-18.236 -26.228)"/><path d="M241.679,126.978c-.209-.423-1.184-2.015-3.978-1.169-4.072,1.233-3.778-3.8-6.045-2.366l1.464,6.058a4.619,4.619,0,0,0,5.691,2.6A4.036,4.036,0,0,0,241.679,126.978Z" transform="translate(-212.012 -112.86)"/><path d="M124.178,2.239A1.166,1.166,0,0,0,125.34,1.06,1.193,1.193,0,0,0,124.046,0a1.165,1.165,0,0,0-1.164,1.18A1.2,1.2,0,0,0,124.178,2.239Z" transform="translate(-113.249 0)"/><path d="M175.833,25.58a1.165,1.165,0,0,0,1.161-1.18,1.194,1.194,0,0,0-1.294-1.058,1.166,1.166,0,0,0-1.164,1.179A1.2,1.2,0,0,0,175.833,25.58Z" transform="translate(-160.149 -21.385)"/><path d="M129.527,48.373a1.193,1.193,0,0,0,1.294,1.058,1.166,1.166,0,0,0,1.164-1.18,1.2,1.2,0,0,0-1.3-1.058A1.165,1.165,0,0,0,129.527,48.373Z" transform="translate(-119.282 -43.236)"/></g></g><g transform="translate(103.558 65.187)"><g transform="translate(0 0)"><path d="M60.847,178.64a4.12,4.12,0,0,0,3.455,4.808,4.521,4.521,0,0,0,5.352-3.138l.739-6.169c-2.427-1.2-1.537,3.771-5.729,2.948C61.785,176.521,61,178.2,60.847,178.64Z" transform="translate(-56.846 -159.373)"/><path d="M53.4,52.9a1.113,1.113,0,0,0-1.375-.628L49,53.19l-1.9-5.207a7.627,7.627,0,0,0,3.634-3.251,6.692,6.692,0,0,0,.4-5.65L46.174,28.627l-13.206,4L33.85,35.9,22.563,33.676,18.841,44.641a6.712,6.712,0,0,0,1.1,5.493,7.838,7.838,0,0,0,4,2.873l-1.274,5.364-3.109-.611a1.1,1.1,0,0,0-1.292.759.994.994,0,0,0,.834,1.177l4.162.819s0,0,.007,0h.015l4.163.819a1.18,1.18,0,0,0,.231.022,1.07,1.07,0,0,0,1.061-.781A1,1,0,0,0,27.9,59.4l-3.111-.613,1.269-5.342c.208.015.416.031.625.031a7.917,7.917,0,0,0,7.83-5.831l.882-6.024.579,2.146a7.967,7.967,0,0,0,7.6,4.992,8.675,8.675,0,0,0,1.473-.138l1.9,5.192-3.017.913a.973.973,0,0,0-.69,1.252,1.086,1.086,0,0,0,1.032.678,1.164,1.164,0,0,0,.343-.051l8.1-2.453A.974.974,0,0,0,53.4,52.9ZM32.373,47.308a5.935,5.935,0,0,1-6.934,4.067h0a5.82,5.82,0,0,1-3.671-2.313,4.868,4.868,0,0,1-.823-3.918L24.052,36,33.746,37.9Zm5.69-4.088-2.5-9.289,9.412-2.852,4.14,8.708a4.857,4.857,0,0,1-.319,4.057,5.669,5.669,0,0,1-3.377,2.662,6.3,6.3,0,0,1-1.845.275A5.792,5.792,0,0,1,38.063,43.22Z" transform="translate(-18.236 -26.228)"/><path d="M241.679,126.978c-.209-.423-1.184-2.015-3.978-1.169-4.072,1.233-3.778-3.8-6.045-2.366l1.464,6.058a4.619,4.619,0,0,0,5.691,2.6A4.036,4.036,0,0,0,241.679,126.978Z" transform="translate(-212.012 -112.86)"/><path d="M124.178,2.239A1.166,1.166,0,0,0,125.34,1.06,1.193,1.193,0,0,0,124.046,0a1.165,1.165,0,0,0-1.164,1.18A1.2,1.2,0,0,0,124.178,2.239Z" transform="translate(-113.249 0)"/><path d="M175.833,25.58a1.165,1.165,0,0,0,1.161-1.18,1.194,1.194,0,0,0-1.294-1.058,1.166,1.166,0,0,0-1.164,1.179A1.2,1.2,0,0,0,175.833,25.58Z" transform="translate(-160.149 -21.385)"/><path d="M129.527,48.373a1.193,1.193,0,0,0,1.294,1.058,1.166,1.166,0,0,0,1.164-1.18,1.2,1.2,0,0,0-1.3-1.058A1.165,1.165,0,0,0,129.527,48.373Z" transform="translate(-119.282 -43.236)"/></g></g><g transform="translate(83.582 18.39)"><g transform="translate(0 0)"><path class="c" d="M12.145,362.311a4.63,4.63,0,0,0,4.031-2.224,4.876,4.876,0,0,1-1.6-2.332,5.888,5.888,0,0,1-1.16.118,5.508,5.508,0,0,1-4.668-2.46,3.925,3.925,0,0,0-1.156,2.752A4.37,4.37,0,0,0,12.145,362.311Z" transform="translate(-7.59 -333.058)"/><path class="c" d="M26.324,262.342a3.858,3.858,0,0,0,.182.356,4.629,4.629,0,0,0,4.035,2.23,4.976,4.976,0,0,0,1-.1,4.352,4.352,0,0,1,.3-2.265c.05-.123.1-.243.164-.361s.12-.231.189-.342a5.09,5.09,0,0,1,1.258-1.38,5.343,5.343,0,0,1-4.873-3.429,4.138,4.138,0,0,0-2.582,3.733,3.8,3.8,0,0,0,.191,1.185A4.011,4.011,0,0,0,26.324,262.342Z" transform="translate(-24.716 -240.882)"/><path class="c" d="M121.524,309.836a4.624,4.624,0,0,1-.415-.984h0q-.211.062-.412.142a4.44,4.44,0,0,0-2.216,1.878,3.879,3.879,0,0,0-.337.761,3.794,3.794,0,0,0-.185,1.162c0,.112.009.221.019.331a3.821,3.821,0,0,0,.056.4,3.68,3.68,0,0,0,.094.375,4.073,4.073,0,0,0,1.133,1.8,4.331,4.331,0,0,0,.341.288q.168.128.35.241a4.842,4.842,0,0,0,2.562.721,4.37,4.37,0,0,0,4.554-4.148c0-.115-.009-.228-.019-.341a5.935,5.935,0,0,1-.724.05A5.48,5.48,0,0,1,121.524,309.836Z" transform="translate(-110.332 -289.427)"/><path class="c" d="M72.063,190.169c.029.126.065.25.1.372a4.529,4.529,0,0,0,4.357,2.943,4.948,4.948,0,0,0,1.181-.147q.2-.051.4-.117l.03-.01c-.012-.133-.022-.267-.022-.4a4.49,4.49,0,0,1,.029-.509,4.748,4.748,0,0,1,1.609-3.011,4.617,4.617,0,0,1-.98-2.43,5.8,5.8,0,0,1-2.249.453,5.716,5.716,0,0,1-3.169-.946,3.964,3.964,0,0,0-1.385,2.972,3.776,3.776,0,0,0,.029.453A3.635,3.635,0,0,0,72.063,190.169Z" transform="translate(-67.525 -174.642)"/><path class="c" d="M179.082,249.1a4.6,4.6,0,0,0,2.133-1.332,4.746,4.746,0,0,1-1.941-3.77c0-.127.011-.252.021-.376a5.893,5.893,0,0,1-.976.085,5.79,5.79,0,0,1-2.473-.551c-.129-.061-.254-.128-.377-.2s-.25-.149-.369-.231a5.3,5.3,0,0,1-.636-.5,3.958,3.958,0,0,0-1.334,2.931c0,.01,0,.019,0,.029,0,.105.008.209.017.312,0,.041.006.082.011.122.011.087.027.172.043.258.01.049.017.1.028.145.018.078.042.153.065.23a4.511,4.511,0,0,0,4.388,3.052,5,5,0,0,0,.577-.037c.141-.016.28-.037.417-.065S178.95,249.135,179.082,249.1Z" transform="translate(-161.696 -226.986)"/><path class="c" d="M73.673,64.7q.175.128.364.24a4.905,4.905,0,0,0,4.736.13c.008-.082.022-.162.035-.242.021-.137.047-.272.08-.4s.065-.253.108-.376a5,5,0,0,1,2.08-2.567s0-.007,0-.011a4.574,4.574,0,0,0-9.109,0,3.964,3.964,0,0,0,1.385,2.972C73.455,64.529,73.561,64.616,73.673,64.7Z" transform="translate(-67.522 -53.714)"/><path class="c" d="M182.512,10.655c-.011.035-.02.07-.03.1a3.76,3.76,0,0,0-.093.412c-.007.039-.015.078-.02.118-.016.117-.025.236-.03.356,0,.049-.008.1-.008.146,0,0,0,.008,0,.011a3.869,3.869,0,0,0,.809,2.353c.08.1.163.206.253.3s.186.194.287.285c.042.037.086.071.13.107a4.515,4.515,0,0,0,.4.3q.187.124.387.231a4.86,4.86,0,0,0,2.285.565,4.961,4.961,0,0,0,1.122-.132,4.647,4.647,0,0,1,.538-1.229c.07-.111.141-.222.219-.329s.165-.207.252-.307a5.424,5.424,0,0,1,2.37-1.556,3.79,3.79,0,0,0,.052-.6,3.944,3.944,0,0,0-1.265-2.86c.057-.131.111-.262.173-.389s.126-.238.191-.356c1.656-3.031,4.887-4.847,8.289-6.141,1.316-.5.739-2.48-.6-1.972-4.017,1.529-7.614,3.595-9.609,7.071-.065.112-.123.23-.185.345s-.127.228-.185.347a4.941,4.941,0,0,0-1.367-.192,4.863,4.863,0,0,0-2.25.546,4.679,4.679,0,0,0-.467.28,4.483,4.483,0,0,0-.532.419A4.087,4.087,0,0,0,182.512,10.655Z" transform="translate(-170.263 -0.001)"/><path class="c" d="M275.864,211.74q.161.127.335.24t.351.208a4.859,4.859,0,0,0,2.3.571,4.166,4.166,0,1,0,0-8.3,4.961,4.961,0,0,0-1.122.132c-.161.037-.318.082-.472.134a4.725,4.725,0,0,0-.533.216A4.528,4.528,0,0,0,275.313,206c-.088.1-.172.2-.25.307s-.155.22-.223.335a3.956,3.956,0,0,0-.219.43,3.952,3.952,0,0,0-.277.946,3.8,3.8,0,0,0-.052.6A4,4,0,0,0,275.864,211.74Z" transform="translate(-255.872 -191.604)"/><path class="c" d="M339.946,84.91s-3.482-9.325-7.635-4.705S337.045,86.7,339.946,84.91Z" transform="translate(-308.873 -73.956)"/></g></g><g transform="translate(210.269 36.103)"><g transform="translate(0 0)"><path class="c" d="M12.145,362.311a4.63,4.63,0,0,0,4.031-2.224,4.876,4.876,0,0,1-1.6-2.332,5.888,5.888,0,0,1-1.16.118,5.508,5.508,0,0,1-4.668-2.46,3.925,3.925,0,0,0-1.156,2.752A4.37,4.37,0,0,0,12.145,362.311Z" transform="translate(-7.59 -333.058)"/><path class="c" d="M26.324,262.342a3.858,3.858,0,0,0,.182.356,4.629,4.629,0,0,0,4.035,2.23,4.976,4.976,0,0,0,1-.1,4.352,4.352,0,0,1,.3-2.265c.05-.123.1-.243.164-.361s.12-.231.189-.342a5.09,5.09,0,0,1,1.258-1.38,5.343,5.343,0,0,1-4.873-3.429,4.138,4.138,0,0,0-2.582,3.733,3.8,3.8,0,0,0,.191,1.185A4.011,4.011,0,0,0,26.324,262.342Z" transform="translate(-24.716 -240.882)"/><path class="c" d="M121.524,309.836a4.624,4.624,0,0,1-.415-.984h0q-.211.062-.412.142a4.44,4.44,0,0,0-2.216,1.878,3.879,3.879,0,0,0-.337.761,3.794,3.794,0,0,0-.185,1.162c0,.112.009.221.019.331a3.821,3.821,0,0,0,.056.4,3.68,3.68,0,0,0,.094.375,4.073,4.073,0,0,0,1.133,1.8,4.331,4.331,0,0,0,.341.288q.168.128.35.241a4.842,4.842,0,0,0,2.562.721,4.37,4.37,0,0,0,4.554-4.148c0-.115-.009-.228-.019-.341a5.935,5.935,0,0,1-.724.05A5.48,5.48,0,0,1,121.524,309.836Z" transform="translate(-110.332 -289.427)"/><path class="c" d="M72.063,190.169c.029.126.065.25.1.372a4.529,4.529,0,0,0,4.357,2.943,4.948,4.948,0,0,0,1.181-.147q.2-.051.4-.117l.03-.01c-.012-.133-.022-.267-.022-.4a4.49,4.49,0,0,1,.029-.509,4.748,4.748,0,0,1,1.609-3.011,4.617,4.617,0,0,1-.98-2.43,5.8,5.8,0,0,1-2.249.453,5.716,5.716,0,0,1-3.169-.946,3.964,3.964,0,0,0-1.385,2.972,3.776,3.776,0,0,0,.029.453A3.635,3.635,0,0,0,72.063,190.169Z" transform="translate(-67.525 -174.642)"/><path class="c" d="M179.082,249.1a4.6,4.6,0,0,0,2.133-1.332,4.746,4.746,0,0,1-1.941-3.77c0-.127.011-.252.021-.376a5.893,5.893,0,0,1-.976.085,5.79,5.79,0,0,1-2.473-.551c-.129-.061-.254-.128-.377-.2s-.25-.149-.369-.231a5.3,5.3,0,0,1-.636-.5,3.958,3.958,0,0,0-1.334,2.931c0,.01,0,.019,0,.029,0,.105.008.209.017.312,0,.041.006.082.011.122.011.087.027.172.043.258.01.049.017.1.028.145.018.078.042.153.065.23a4.511,4.511,0,0,0,4.388,3.052,5,5,0,0,0,.577-.037c.141-.016.28-.037.417-.065S178.95,249.135,179.082,249.1Z" transform="translate(-161.696 -226.986)"/><path class="c" d="M73.673,64.7q.175.128.364.24a4.905,4.905,0,0,0,4.736.13c.008-.082.022-.162.035-.242.021-.137.047-.272.08-.4s.065-.253.108-.376a5,5,0,0,1,2.08-2.567s0-.007,0-.011a4.574,4.574,0,0,0-9.109,0,3.964,3.964,0,0,0,1.385,2.972C73.455,64.529,73.561,64.616,73.673,64.7Z" transform="translate(-67.522 -53.714)"/><path class="c" d="M182.512,10.655c-.011.035-.02.07-.03.1a3.76,3.76,0,0,0-.093.412c-.007.039-.015.078-.02.118-.016.117-.025.236-.03.356,0,.049-.008.1-.008.146,0,0,0,.008,0,.011a3.869,3.869,0,0,0,.809,2.353c.08.1.163.206.253.3s.186.194.287.285c.042.037.086.071.13.107a4.515,4.515,0,0,0,.4.3q.187.124.387.231a4.86,4.86,0,0,0,2.285.565,4.961,4.961,0,0,0,1.122-.132,4.647,4.647,0,0,1,.538-1.229c.07-.111.141-.222.219-.329s.165-.207.252-.307a5.424,5.424,0,0,1,2.37-1.556,3.79,3.79,0,0,0,.052-.6,3.944,3.944,0,0,0-1.265-2.86c.057-.131.111-.262.173-.389s.126-.238.191-.356c1.656-3.031,4.887-4.847,8.289-6.141,1.316-.5.739-2.48-.6-1.972-4.017,1.529-7.614,3.595-9.609,7.071-.065.112-.123.23-.185.345s-.127.228-.185.347a4.941,4.941,0,0,0-1.367-.192,4.863,4.863,0,0,0-2.25.546,4.679,4.679,0,0,0-.467.28,4.483,4.483,0,0,0-.532.419A4.087,4.087,0,0,0,182.512,10.655Z" transform="translate(-170.263 -0.001)"/><path class="c" d="M275.864,211.74q.161.127.335.24t.351.208a4.859,4.859,0,0,0,2.3.571,4.166,4.166,0,1,0,0-8.3,4.961,4.961,0,0,0-1.122.132c-.161.037-.318.082-.472.134a4.725,4.725,0,0,0-.533.216A4.528,4.528,0,0,0,275.313,206c-.088.1-.172.2-.25.307s-.155.22-.223.335a3.956,3.956,0,0,0-.219.43,3.952,3.952,0,0,0-.277.946,3.8,3.8,0,0,0-.052.6A4,4,0,0,0,275.864,211.74Z" transform="translate(-255.872 -191.604)"/><path class="c" d="M339.946,84.91s-3.482-9.325-7.635-4.705S337.045,86.7,339.946,84.91Z" transform="translate(-308.873 -73.956)"/></g></g><g transform="translate(156.651 36.178)"><path d="M51.559.043a1.765,1.765,0,0,0-1.423.688H48.666A2.45,2.45,0,0,0,46.9,0H43.182a2.454,2.454,0,0,0-1.763.732H39.95A1.752,1.752,0,0,0,38.5,0a1.645,1.645,0,0,0-1.716,1.563V2.7A1.645,1.645,0,0,0,38.5,4.263a1.768,1.768,0,0,0,1.383-.645h1.573a2.459,2.459,0,0,0,1.724.688H44.2V10.06h-.817v.83H44.2V11.7h-.936v.831h.817v.809h-.817v.83h.817v.809h-.937v.83h.817v.809h-.7v.83h.817v.809h-.937v.829H44.78v-.83h.937v-.83H44.9v-.809h.7v-.831H44.78v-.809h.937v-.83H44.9v-.809h.817v-.831H44.9V11.7h.937v-.83H45.02V10.3H45.5V4.306h1.4a2.463,2.463,0,0,0,1.724-.688h1.51a1.765,1.765,0,0,0,1.423.688,1.645,1.645,0,0,0,1.716-1.563V1.607A1.647,1.647,0,0,0,51.559.043Z" transform="translate(-36.786)"/></g><g transform="matrix(0.914, -0.407, 0.407, 0.914, 228.273, 94.153)"><path d="M14.557.534a1.593,1.593,0,0,0-1.377.652l-1.449-.049a2.558,2.558,0,0,0-1.764-.8L6.3.212A2.219,2.219,0,0,0,4.591.9L3.144.849A1.853,1.853,0,0,0,1.691.057,1.511,1.511,0,0,0,.057,1.589L.1,2.744A1.787,1.787,0,0,0,1.846,4.389a1.6,1.6,0,0,0,1.339-.61l1.55.052a2.56,2.56,0,0,0,1.723.757l1.007.034.21,5.847-.8-.027.03.844.8.027.029.822L6.812,12.1l.03.845.8.027.029.822-.8-.027.03.844.8.027.029.822-.923-.031.03.844.8.027.029.822L6.991,17.1l.03.844.8.027.029.822-.923-.031.03.843,1.609.054-.03-.844.923.031-.03-.844-.8-.027L8.6,17.156l.687.023-.03-.845-.8-.027-.029-.822.923.031-.03-.844-.8-.027-.029-.822.8.027-.03-.845-.8-.027-.029-.822.923.031-.03-.844-.8-.027-.021-.577.474.016L8.743,4.665l1.381.047A2.229,2.229,0,0,0,11.8,4.069l1.487.05a1.861,1.861,0,0,0,1.427.747,1.511,1.511,0,0,0,1.634-1.532L16.3,2.18A1.789,1.789,0,0,0,14.557.534Z" transform="translate(0 0)"/></g></g></g><g transform="translate(3007.815 753.909)"><g transform="translate(0)"><g transform="translate(0)"><g transform="translate(47.836 65.305)"><path d="M61.454,12.31a.749.749,0,0,0-.781.711v.552h-.538a19.22,19.22,0,0,1,1.142-4.892.659.659,0,0,0-.1-.644.807.807,0,0,0-.635-.3H55.865l.287-.771a2.383,2.383,0,0,0-1.015-2.841L56.2,1.273A.654.654,0,0,0,56.16.73a.763.763,0,0,0-.45-.359L54.629.038a.8.8,0,0,0-.99.445L52.577,3.337a2.955,2.955,0,0,0-1.319.257,2.57,2.57,0,0,0-1.383,1.438L48.867,7.741H42.95a.807.807,0,0,0-.635.3.659.659,0,0,0-.1.644,19.224,19.224,0,0,1,1.142,4.892h-.538v-.552a.784.784,0,0,0-1.562,0v2.527a.784.784,0,0,0,1.562,0V15h.625q.005.219.005.439v6.931a2.75,2.75,0,0,0,2.866,2.61H57.178a2.75,2.75,0,0,0,2.866-2.61V15.435q0-.22.005-.439h.625v.552a.784.784,0,0,0,1.562,0V13.021A.749.749,0,0,0,61.454,12.31Zm-10.1-6.821a1.107,1.107,0,0,1,.6-.619,1.278,1.278,0,0,1,.9-.054h0l1.081.333a1.057,1.057,0,0,1,.74,1.364l-.457,1.228h-3.7Zm7.127,16.877a1.251,1.251,0,0,1-1.3,1.187H46.31a1.251,1.251,0,0,1-1.3-1.187V15.435a20.389,20.389,0,0,0-.989-6.272H59.471a20.389,20.389,0,0,0-.989,6.272v6.931Z" transform="translate(-41.253 0)"/></g><g transform="translate(199.23 2.592)"><path d="M61.454,12.31a.749.749,0,0,0-.781.711v.552h-.538a19.22,19.22,0,0,1,1.142-4.892.659.659,0,0,0-.1-.644.807.807,0,0,0-.635-.3H55.865l.287-.771a2.383,2.383,0,0,0-1.015-2.841L56.2,1.273A.654.654,0,0,0,56.16.73a.763.763,0,0,0-.45-.359L54.629.038a.8.8,0,0,0-.99.445L52.577,3.337a2.955,2.955,0,0,0-1.319.257,2.57,2.57,0,0,0-1.383,1.438L48.867,7.741H42.95a.807.807,0,0,0-.635.3.659.659,0,0,0-.1.644,19.224,19.224,0,0,1,1.142,4.892h-.538v-.552a.784.784,0,0,0-1.562,0v2.527a.784.784,0,0,0,1.562,0V15h.625q.005.219.005.439v6.931a2.75,2.75,0,0,0,2.866,2.61H57.178a2.75,2.75,0,0,0,2.866-2.61V15.435q0-.22.005-.439h.625v.552a.784.784,0,0,0,1.562,0V13.021A.749.749,0,0,0,61.454,12.31Zm-10.1-6.821a1.107,1.107,0,0,1,.6-.619,1.278,1.278,0,0,1,.9-.054h0l1.081.333a1.057,1.057,0,0,1,.74,1.364l-.457,1.228h-3.7Zm7.127,16.877a1.251,1.251,0,0,1-1.3,1.187H46.31a1.251,1.251,0,0,1-1.3-1.187V15.435a20.389,20.389,0,0,0-.989-6.272H59.471a20.389,20.389,0,0,0-.989,6.272v6.931Z" transform="translate(-41.253 0)"/></g><g transform="translate(6.308 98.139)"><path d="M24.174,46.527h-.607v-.554h.01a.675.675,0,1,0,0-1.344h-1.4a.707.707,0,0,0-.738.672.7.7,0,0,0,.654.667v.559H20.905V42.063a.692.692,0,0,0-.6-.66l-3.445-.594a37.611,37.611,0,0,0-12.814,0L.6,41.4a.692.692,0,0,0-.6.66V52.335A.692.692,0,0,0,.6,53l3.445.594q1.141.2,2.287.323l-1.377,3.72a.66.66,0,0,0,.464.851.805.805,0,0,0,.236.035.737.737,0,0,0,.7-.458l.385-1.039h7.428l.385,1.039a.736.736,0,0,0,.7.458.8.8,0,0,0,.236-.035.66.66,0,0,0,.464-.851l-1.377-3.72q1.145-.126,2.287-.323L20.3,53a.692.692,0,0,0,.6-.66V47.871h3.268a.328.328,0,0,1,.342.311v.571a.741.741,0,0,0,1.476,0v-.571A1.744,1.744,0,0,0,24.174,46.527Zm-9.319,6V41.874q.288.035.575.075v10.5Q15.142,52.489,14.855,52.524Zm-9.379-.075v-10.5q.287-.04.575-.075v10.65Q5.763,52.488,5.476,52.449Zm11.43-10.264,2.524.435v9.159l-2.524.435Zm-3.527,10.49a35.923,35.923,0,0,1-5.853,0V41.723a35.923,35.923,0,0,1,5.853,0ZM1.476,42.62,4,42.184V52.213l-2.524-.435Zm8.977,11.519q1.307,0,2.613-.092l.6,1.631H7.236l.6-1.631Q9.145,54.138,10.453,54.139Z" transform="translate(0 -40.259)"/></g><g transform="translate(128.264)"><path d="M24.174,46.527h-.607v-.554h.01a.675.675,0,1,0,0-1.344h-1.4a.707.707,0,0,0-.738.672.7.7,0,0,0,.654.667v.559H20.905V42.063a.692.692,0,0,0-.6-.66l-3.445-.594a37.611,37.611,0,0,0-12.814,0L.6,41.4a.692.692,0,0,0-.6.66V52.335A.692.692,0,0,0,.6,53l3.445.594q1.141.2,2.287.323l-1.377,3.72a.66.66,0,0,0,.464.851.805.805,0,0,0,.236.035.737.737,0,0,0,.7-.458l.385-1.039h7.428l.385,1.039a.736.736,0,0,0,.7.458.8.8,0,0,0,.236-.035.66.66,0,0,0,.464-.851l-1.377-3.72q1.145-.126,2.287-.323L20.3,53a.692.692,0,0,0,.6-.66V47.871h3.268a.328.328,0,0,1,.342.311v.571a.741.741,0,0,0,1.476,0v-.571A1.744,1.744,0,0,0,24.174,46.527Zm-9.319,6V41.874q.288.035.575.075v10.5Q15.142,52.489,14.855,52.524Zm-9.379-.075v-10.5q.287-.04.575-.075v10.65Q5.763,52.488,5.476,52.449Zm11.43-10.264,2.524.435v9.159l-2.524.435Zm-3.527,10.49a35.923,35.923,0,0,1-5.853,0V41.723a35.923,35.923,0,0,1,5.853,0ZM1.476,42.62,4,42.184V52.213l-2.524-.435Zm8.977,11.519q1.307,0,2.613-.092l.6,1.631H7.236l.6-1.631Q9.145,54.138,10.453,54.139Z" transform="translate(0 -40.259)"/></g><g transform="translate(170.844 77.752)"><path d="M38.828,14.778c-.127-.492-.441-1.7-.631-2.428-.09-.343-.152-.582-.152-.582-.185-.728-.5-1.937-.63-2.428-.186-.721-1.15-.854-1.679-.741L18.157,12.378c-2.07.448-3.19,3.314-4.644,3.627L5.5,17.728l.123.475a11.007,11.007,0,0,0-2.738,2.026c-.644.745-.457,2.345-.242,3.387-.653-.043-1.152-.086-1.152-.086S-.951,29.052.414,31.094s3.847,3.372,3.847,4.65v3.984c0,1.364-2.738,2.194-3.9,2.492-.25.069-.177.138,0,.138h8.46c.177,0,.251-.069,0-.138-1.167-.3-3.774-1.129-3.774-2.492,0-.027,0-.055,0-.082h0v-3.9c0-1.278,2.483-2.609,3.847-4.651S7.808,23.53,7.808,23.53s-.965.084-1.972.134c-.078-.809-.212-1.793-.346-2.535-.213-1.163.285-1.445.494-1.513l.171.661,8.019-1.725c1.453-.312,3.863,1.8,5.932,1.352s17.052-3.668,17.581-3.781S39.014,15.5,38.828,14.778ZM2.9,32.524a9.389,9.389,0,0,1-1.166-1.278,5.128,5.128,0,0,1-.513-.843,3.015,3.015,0,0,1-.189-.509,2.06,2.06,0,0,1-.068-.51,9.5,9.5,0,0,1,.211-1.9,14.856,14.856,0,0,1,.395-1.6A16,16,0,0,1,2.1,24.356s-.062.64-.175,1.587c-.057.472-.125,1.023-.2,1.611A13.981,13.981,0,0,0,1.6,29.369a1.619,1.619,0,0,0,.049.435,2.648,2.648,0,0,0,.14.385,5.7,5.7,0,0,0,.42.784,16.037,16.037,0,0,0,.966,1.335c.609.768,1.049,1.271,1.049,1.271A11.394,11.394,0,0,1,2.9,32.524ZM36.309,15.111c-.588.167-1.423.437-2.437.708-2.024.557-4.744,1.223-7.481,1.816-1.371.284-2.744.571-4.037.809-.649.115-1.274.226-1.868.337a5.474,5.474,0,0,1-.978.063c-.3-.042-.593-.1-.863-.16l-.739-.243-.633-.277c-.386-.185-.717-.353-.98-.5a8.044,8.044,0,0,1-.8-.5s.324.136.894.341c.283.107.634.223,1.037.345s.862.219,1.357.315c.245.024.505.045.76.057a5.576,5.576,0,0,0,.769-.118c.584-.146,1.2-.3,1.835-.46,1.275-.314,2.642-.616,4.009-.922,2.74-.585,5.5-1.1,7.583-1.421,1.039-.171,1.917-.272,2.528-.361s.964-.113.964-.113S36.9,14.932,36.309,15.111Z" transform="translate(0.001 -8.564)"/></g><g transform="translate(0 51.901)"><path d="M38.828,14.778c-.127-.492-.441-1.7-.631-2.428-.09-.343-.152-.582-.152-.582-.185-.728-.5-1.937-.63-2.428-.186-.721-1.15-.854-1.679-.741L18.157,12.378c-2.07.448-3.19,3.314-4.644,3.627L5.5,17.728l.123.475a11.007,11.007,0,0,0-2.738,2.026c-.644.745-.457,2.345-.242,3.387-.653-.043-1.152-.086-1.152-.086S-.951,29.052.414,31.094s3.847,3.372,3.847,4.65v3.984c0,1.364-2.738,2.194-3.9,2.492-.25.069-.177.138,0,.138h8.46c.177,0,.251-.069,0-.138-1.167-.3-3.774-1.129-3.774-2.492,0-.027,0-.055,0-.082h0v-3.9c0-1.278,2.483-2.609,3.847-4.651S7.808,23.53,7.808,23.53s-.965.084-1.972.134c-.078-.809-.212-1.793-.346-2.535-.213-1.163.285-1.445.494-1.513l.171.661,8.019-1.725c1.453-.312,3.863,1.8,5.932,1.352s17.052-3.668,17.581-3.781S39.014,15.5,38.828,14.778ZM2.9,32.524a9.389,9.389,0,0,1-1.166-1.278,5.128,5.128,0,0,1-.513-.843,3.015,3.015,0,0,1-.189-.509,2.06,2.06,0,0,1-.068-.51,9.5,9.5,0,0,1,.211-1.9,14.856,14.856,0,0,1,.395-1.6A16,16,0,0,1,2.1,24.356s-.062.64-.175,1.587c-.057.472-.125,1.023-.2,1.611A13.981,13.981,0,0,0,1.6,29.369a1.619,1.619,0,0,0,.049.435,2.648,2.648,0,0,0,.14.385,5.7,5.7,0,0,0,.42.784,16.037,16.037,0,0,0,.966,1.335c.609.768,1.049,1.271,1.049,1.271A11.394,11.394,0,0,1,2.9,32.524ZM36.309,15.111c-.588.167-1.423.437-2.437.708-2.024.557-4.744,1.223-7.481,1.816-1.371.284-2.744.571-4.037.809-.649.115-1.274.226-1.868.337a5.474,5.474,0,0,1-.978.063c-.3-.042-.593-.1-.863-.16l-.739-.243-.633-.277c-.386-.185-.717-.353-.98-.5a8.044,8.044,0,0,1-.8-.5s.324.136.894.341c.283.107.634.223,1.037.345s.862.219,1.357.315c.245.024.505.045.76.057a5.576,5.576,0,0,0,.769-.118c.584-.146,1.2-.3,1.835-.46,1.275-.314,2.642-.616,4.009-.922,2.74-.585,5.5-1.1,7.583-1.421,1.039-.171,1.917-.272,2.528-.361s.964-.113.964-.113S36.9,14.932,36.309,15.111Z" transform="translate(0.001 -8.564)"/></g><g transform="translate(12.616 3.91)"><g transform="translate(0 0)"><path d="M60.847,178.64a4.12,4.12,0,0,0,3.455,4.808,4.521,4.521,0,0,0,5.352-3.138l.739-6.169c-2.427-1.2-1.537,3.771-5.729,2.948C61.785,176.521,61,178.2,60.847,178.64Z" transform="translate(-56.846 -159.373)"/><path d="M53.4,52.9a1.113,1.113,0,0,0-1.375-.628L49,53.19l-1.9-5.207a7.627,7.627,0,0,0,3.634-3.251,6.692,6.692,0,0,0,.4-5.65L46.174,28.627l-13.206,4L33.85,35.9,22.563,33.676,18.841,44.641a6.712,6.712,0,0,0,1.1,5.493,7.838,7.838,0,0,0,4,2.873l-1.274,5.364-3.109-.611a1.1,1.1,0,0,0-1.292.759.994.994,0,0,0,.834,1.177l4.162.819s0,0,.007,0h.015l4.163.819a1.18,1.18,0,0,0,.231.022,1.07,1.07,0,0,0,1.061-.781A1,1,0,0,0,27.9,59.4l-3.111-.613,1.269-5.342c.208.015.416.031.625.031a7.917,7.917,0,0,0,7.83-5.831l.882-6.024.579,2.146a7.967,7.967,0,0,0,7.6,4.992,8.675,8.675,0,0,0,1.473-.138l1.9,5.192-3.017.913a.973.973,0,0,0-.69,1.252,1.086,1.086,0,0,0,1.032.678,1.164,1.164,0,0,0,.343-.051l8.1-2.453A.974.974,0,0,0,53.4,52.9ZM32.373,47.308a5.935,5.935,0,0,1-6.934,4.067h0a5.82,5.82,0,0,1-3.671-2.313,4.868,4.868,0,0,1-.823-3.918L24.052,36,33.746,37.9Zm5.69-4.088-2.5-9.289,9.412-2.852,4.14,8.708a4.857,4.857,0,0,1-.319,4.057,5.669,5.669,0,0,1-3.377,2.662,6.3,6.3,0,0,1-1.845.275A5.792,5.792,0,0,1,38.063,43.22Z" transform="translate(-18.236 -26.228)"/><path d="M241.679,126.978c-.209-.423-1.184-2.015-3.978-1.169-4.072,1.233-3.778-3.8-6.045-2.366l1.464,6.058a4.619,4.619,0,0,0,5.691,2.6A4.036,4.036,0,0,0,241.679,126.978Z" transform="translate(-212.012 -112.86)"/><path d="M124.178,2.239A1.166,1.166,0,0,0,125.34,1.06,1.193,1.193,0,0,0,124.046,0a1.165,1.165,0,0,0-1.164,1.18A1.2,1.2,0,0,0,124.178,2.239Z" transform="translate(-113.249 0)"/><path d="M175.833,25.58a1.165,1.165,0,0,0,1.161-1.18,1.194,1.194,0,0,0-1.294-1.058,1.166,1.166,0,0,0-1.164,1.179A1.2,1.2,0,0,0,175.833,25.58Z" transform="translate(-160.149 -21.385)"/><path d="M129.527,48.373a1.193,1.193,0,0,0,1.294,1.058,1.166,1.166,0,0,0,1.164-1.18,1.2,1.2,0,0,0-1.3-1.058A1.165,1.165,0,0,0,129.527,48.373Z" transform="translate(-119.282 -43.236)"/></g></g><g transform="translate(103.558 65.187)"><g transform="translate(0 0)"><path d="M60.847,178.64a4.12,4.12,0,0,0,3.455,4.808,4.521,4.521,0,0,0,5.352-3.138l.739-6.169c-2.427-1.2-1.537,3.771-5.729,2.948C61.785,176.521,61,178.2,60.847,178.64Z" transform="translate(-56.846 -159.373)"/><path d="M53.4,52.9a1.113,1.113,0,0,0-1.375-.628L49,53.19l-1.9-5.207a7.627,7.627,0,0,0,3.634-3.251,6.692,6.692,0,0,0,.4-5.65L46.174,28.627l-13.206,4L33.85,35.9,22.563,33.676,18.841,44.641a6.712,6.712,0,0,0,1.1,5.493,7.838,7.838,0,0,0,4,2.873l-1.274,5.364-3.109-.611a1.1,1.1,0,0,0-1.292.759.994.994,0,0,0,.834,1.177l4.162.819s0,0,.007,0h.015l4.163.819a1.18,1.18,0,0,0,.231.022,1.07,1.07,0,0,0,1.061-.781A1,1,0,0,0,27.9,59.4l-3.111-.613,1.269-5.342c.208.015.416.031.625.031a7.917,7.917,0,0,0,7.83-5.831l.882-6.024.579,2.146a7.967,7.967,0,0,0,7.6,4.992,8.675,8.675,0,0,0,1.473-.138l1.9,5.192-3.017.913a.973.973,0,0,0-.69,1.252,1.086,1.086,0,0,0,1.032.678,1.164,1.164,0,0,0,.343-.051l8.1-2.453A.974.974,0,0,0,53.4,52.9ZM32.373,47.308a5.935,5.935,0,0,1-6.934,4.067h0a5.82,5.82,0,0,1-3.671-2.313,4.868,4.868,0,0,1-.823-3.918L24.052,36,33.746,37.9Zm5.69-4.088-2.5-9.289,9.412-2.852,4.14,8.708a4.857,4.857,0,0,1-.319,4.057,5.669,5.669,0,0,1-3.377,2.662,6.3,6.3,0,0,1-1.845.275A5.792,5.792,0,0,1,38.063,43.22Z" transform="translate(-18.236 -26.228)"/><path d="M241.679,126.978c-.209-.423-1.184-2.015-3.978-1.169-4.072,1.233-3.778-3.8-6.045-2.366l1.464,6.058a4.619,4.619,0,0,0,5.691,2.6A4.036,4.036,0,0,0,241.679,126.978Z" transform="translate(-212.012 -112.86)"/><path d="M124.178,2.239A1.166,1.166,0,0,0,125.34,1.06,1.193,1.193,0,0,0,124.046,0a1.165,1.165,0,0,0-1.164,1.18A1.2,1.2,0,0,0,124.178,2.239Z" transform="translate(-113.249 0)"/><path d="M175.833,25.58a1.165,1.165,0,0,0,1.161-1.18,1.194,1.194,0,0,0-1.294-1.058,1.166,1.166,0,0,0-1.164,1.179A1.2,1.2,0,0,0,175.833,25.58Z" transform="translate(-160.149 -21.385)"/><path d="M129.527,48.373a1.193,1.193,0,0,0,1.294,1.058,1.166,1.166,0,0,0,1.164-1.18,1.2,1.2,0,0,0-1.3-1.058A1.165,1.165,0,0,0,129.527,48.373Z" transform="translate(-119.282 -43.236)"/></g></g><g transform="translate(83.582 18.39)"><g transform="translate(0 0)"><path class="c" d="M12.145,362.311a4.63,4.63,0,0,0,4.031-2.224,4.876,4.876,0,0,1-1.6-2.332,5.888,5.888,0,0,1-1.16.118,5.508,5.508,0,0,1-4.668-2.46,3.925,3.925,0,0,0-1.156,2.752A4.37,4.37,0,0,0,12.145,362.311Z" transform="translate(-7.59 -333.058)"/><path class="c" d="M26.324,262.342a3.858,3.858,0,0,0,.182.356,4.629,4.629,0,0,0,4.035,2.23,4.976,4.976,0,0,0,1-.1,4.352,4.352,0,0,1,.3-2.265c.05-.123.1-.243.164-.361s.12-.231.189-.342a5.09,5.09,0,0,1,1.258-1.38,5.343,5.343,0,0,1-4.873-3.429,4.138,4.138,0,0,0-2.582,3.733,3.8,3.8,0,0,0,.191,1.185A4.011,4.011,0,0,0,26.324,262.342Z" transform="translate(-24.716 -240.882)"/><path class="c" d="M121.524,309.836a4.624,4.624,0,0,1-.415-.984h0q-.211.062-.412.142a4.44,4.44,0,0,0-2.216,1.878,3.879,3.879,0,0,0-.337.761,3.794,3.794,0,0,0-.185,1.162c0,.112.009.221.019.331a3.821,3.821,0,0,0,.056.4,3.68,3.68,0,0,0,.094.375,4.073,4.073,0,0,0,1.133,1.8,4.331,4.331,0,0,0,.341.288q.168.128.35.241a4.842,4.842,0,0,0,2.562.721,4.37,4.37,0,0,0,4.554-4.148c0-.115-.009-.228-.019-.341a5.935,5.935,0,0,1-.724.05A5.48,5.48,0,0,1,121.524,309.836Z" transform="translate(-110.332 -289.427)"/><path class="c" d="M72.063,190.169c.029.126.065.25.1.372a4.529,4.529,0,0,0,4.357,2.943,4.948,4.948,0,0,0,1.181-.147q.2-.051.4-.117l.03-.01c-.012-.133-.022-.267-.022-.4a4.49,4.49,0,0,1,.029-.509,4.748,4.748,0,0,1,1.609-3.011,4.617,4.617,0,0,1-.98-2.43,5.8,5.8,0,0,1-2.249.453,5.716,5.716,0,0,1-3.169-.946,3.964,3.964,0,0,0-1.385,2.972,3.776,3.776,0,0,0,.029.453A3.635,3.635,0,0,0,72.063,190.169Z" transform="translate(-67.525 -174.642)"/><path class="c" d="M179.082,249.1a4.6,4.6,0,0,0,2.133-1.332,4.746,4.746,0,0,1-1.941-3.77c0-.127.011-.252.021-.376a5.893,5.893,0,0,1-.976.085,5.79,5.79,0,0,1-2.473-.551c-.129-.061-.254-.128-.377-.2s-.25-.149-.369-.231a5.3,5.3,0,0,1-.636-.5,3.958,3.958,0,0,0-1.334,2.931c0,.01,0,.019,0,.029,0,.105.008.209.017.312,0,.041.006.082.011.122.011.087.027.172.043.258.01.049.017.1.028.145.018.078.042.153.065.23a4.511,4.511,0,0,0,4.388,3.052,5,5,0,0,0,.577-.037c.141-.016.28-.037.417-.065S178.95,249.135,179.082,249.1Z" transform="translate(-161.696 -226.986)"/><path class="c" d="M73.673,64.7q.175.128.364.24a4.905,4.905,0,0,0,4.736.13c.008-.082.022-.162.035-.242.021-.137.047-.272.08-.4s.065-.253.108-.376a5,5,0,0,1,2.08-2.567s0-.007,0-.011a4.574,4.574,0,0,0-9.109,0,3.964,3.964,0,0,0,1.385,2.972C73.455,64.529,73.561,64.616,73.673,64.7Z" transform="translate(-67.522 -53.714)"/><path class="c" d="M182.512,10.655c-.011.035-.02.07-.03.1a3.76,3.76,0,0,0-.093.412c-.007.039-.015.078-.02.118-.016.117-.025.236-.03.356,0,.049-.008.1-.008.146,0,0,0,.008,0,.011a3.869,3.869,0,0,0,.809,2.353c.08.1.163.206.253.3s.186.194.287.285c.042.037.086.071.13.107a4.515,4.515,0,0,0,.4.3q.187.124.387.231a4.86,4.86,0,0,0,2.285.565,4.961,4.961,0,0,0,1.122-.132,4.647,4.647,0,0,1,.538-1.229c.07-.111.141-.222.219-.329s.165-.207.252-.307a5.424,5.424,0,0,1,2.37-1.556,3.79,3.79,0,0,0,.052-.6,3.944,3.944,0,0,0-1.265-2.86c.057-.131.111-.262.173-.389s.126-.238.191-.356c1.656-3.031,4.887-4.847,8.289-6.141,1.316-.5.739-2.48-.6-1.972-4.017,1.529-7.614,3.595-9.609,7.071-.065.112-.123.23-.185.345s-.127.228-.185.347a4.941,4.941,0,0,0-1.367-.192,4.863,4.863,0,0,0-2.25.546,4.679,4.679,0,0,0-.467.28,4.483,4.483,0,0,0-.532.419A4.087,4.087,0,0,0,182.512,10.655Z" transform="translate(-170.263 -0.001)"/><path class="c" d="M275.864,211.74q.161.127.335.24t.351.208a4.859,4.859,0,0,0,2.3.571,4.166,4.166,0,1,0,0-8.3,4.961,4.961,0,0,0-1.122.132c-.161.037-.318.082-.472.134a4.725,4.725,0,0,0-.533.216A4.528,4.528,0,0,0,275.313,206c-.088.1-.172.2-.25.307s-.155.22-.223.335a3.956,3.956,0,0,0-.219.43,3.952,3.952,0,0,0-.277.946,3.8,3.8,0,0,0-.052.6A4,4,0,0,0,275.864,211.74Z" transform="translate(-255.872 -191.604)"/><path class="c" d="M339.946,84.91s-3.482-9.325-7.635-4.705S337.045,86.7,339.946,84.91Z" transform="translate(-308.873 -73.956)"/></g></g><g transform="translate(210.269 36.103)"><g transform="translate(0 0)"><path class="c" d="M12.145,362.311a4.63,4.63,0,0,0,4.031-2.224,4.876,4.876,0,0,1-1.6-2.332,5.888,5.888,0,0,1-1.16.118,5.508,5.508,0,0,1-4.668-2.46,3.925,3.925,0,0,0-1.156,2.752A4.37,4.37,0,0,0,12.145,362.311Z" transform="translate(-7.59 -333.058)"/><path class="c" d="M26.324,262.342a3.858,3.858,0,0,0,.182.356,4.629,4.629,0,0,0,4.035,2.23,4.976,4.976,0,0,0,1-.1,4.352,4.352,0,0,1,.3-2.265c.05-.123.1-.243.164-.361s.12-.231.189-.342a5.09,5.09,0,0,1,1.258-1.38,5.343,5.343,0,0,1-4.873-3.429,4.138,4.138,0,0,0-2.582,3.733,3.8,3.8,0,0,0,.191,1.185A4.011,4.011,0,0,0,26.324,262.342Z" transform="translate(-24.716 -240.882)"/><path class="c" d="M121.524,309.836a4.624,4.624,0,0,1-.415-.984h0q-.211.062-.412.142a4.44,4.44,0,0,0-2.216,1.878,3.879,3.879,0,0,0-.337.761,3.794,3.794,0,0,0-.185,1.162c0,.112.009.221.019.331a3.821,3.821,0,0,0,.056.4,3.68,3.68,0,0,0,.094.375,4.073,4.073,0,0,0,1.133,1.8,4.331,4.331,0,0,0,.341.288q.168.128.35.241a4.842,4.842,0,0,0,2.562.721,4.37,4.37,0,0,0,4.554-4.148c0-.115-.009-.228-.019-.341a5.935,5.935,0,0,1-.724.05A5.48,5.48,0,0,1,121.524,309.836Z" transform="translate(-110.332 -289.427)"/><path class="c" d="M72.063,190.169c.029.126.065.25.1.372a4.529,4.529,0,0,0,4.357,2.943,4.948,4.948,0,0,0,1.181-.147q.2-.051.4-.117l.03-.01c-.012-.133-.022-.267-.022-.4a4.49,4.49,0,0,1,.029-.509,4.748,4.748,0,0,1,1.609-3.011,4.617,4.617,0,0,1-.98-2.43,5.8,5.8,0,0,1-2.249.453,5.716,5.716,0,0,1-3.169-.946,3.964,3.964,0,0,0-1.385,2.972,3.776,3.776,0,0,0,.029.453A3.635,3.635,0,0,0,72.063,190.169Z" transform="translate(-67.525 -174.642)"/><path class="c" d="M179.082,249.1a4.6,4.6,0,0,0,2.133-1.332,4.746,4.746,0,0,1-1.941-3.77c0-.127.011-.252.021-.376a5.893,5.893,0,0,1-.976.085,5.79,5.79,0,0,1-2.473-.551c-.129-.061-.254-.128-.377-.2s-.25-.149-.369-.231a5.3,5.3,0,0,1-.636-.5,3.958,3.958,0,0,0-1.334,2.931c0,.01,0,.019,0,.029,0,.105.008.209.017.312,0,.041.006.082.011.122.011.087.027.172.043.258.01.049.017.1.028.145.018.078.042.153.065.23a4.511,4.511,0,0,0,4.388,3.052,5,5,0,0,0,.577-.037c.141-.016.28-.037.417-.065S178.95,249.135,179.082,249.1Z" transform="translate(-161.696 -226.986)"/><path class="c" d="M73.673,64.7q.175.128.364.24a4.905,4.905,0,0,0,4.736.13c.008-.082.022-.162.035-.242.021-.137.047-.272.08-.4s.065-.253.108-.376a5,5,0,0,1,2.08-2.567s0-.007,0-.011a4.574,4.574,0,0,0-9.109,0,3.964,3.964,0,0,0,1.385,2.972C73.455,64.529,73.561,64.616,73.673,64.7Z" transform="translate(-67.522 -53.714)"/><path class="c" d="M182.512,10.655c-.011.035-.02.07-.03.1a3.76,3.76,0,0,0-.093.412c-.007.039-.015.078-.02.118-.016.117-.025.236-.03.356,0,.049-.008.1-.008.146,0,0,0,.008,0,.011a3.869,3.869,0,0,0,.809,2.353c.08.1.163.206.253.3s.186.194.287.285c.042.037.086.071.13.107a4.515,4.515,0,0,0,.4.3q.187.124.387.231a4.86,4.86,0,0,0,2.285.565,4.961,4.961,0,0,0,1.122-.132,4.647,4.647,0,0,1,.538-1.229c.07-.111.141-.222.219-.329s.165-.207.252-.307a5.424,5.424,0,0,1,2.37-1.556,3.79,3.79,0,0,0,.052-.6,3.944,3.944,0,0,0-1.265-2.86c.057-.131.111-.262.173-.389s.126-.238.191-.356c1.656-3.031,4.887-4.847,8.289-6.141,1.316-.5.739-2.48-.6-1.972-4.017,1.529-7.614,3.595-9.609,7.071-.065.112-.123.23-.185.345s-.127.228-.185.347a4.941,4.941,0,0,0-1.367-.192,4.863,4.863,0,0,0-2.25.546,4.679,4.679,0,0,0-.467.28,4.483,4.483,0,0,0-.532.419A4.087,4.087,0,0,0,182.512,10.655Z" transform="translate(-170.263 -0.001)"/><path class="c" d="M275.864,211.74q.161.127.335.24t.351.208a4.859,4.859,0,0,0,2.3.571,4.166,4.166,0,1,0,0-8.3,4.961,4.961,0,0,0-1.122.132c-.161.037-.318.082-.472.134a4.725,4.725,0,0,0-.533.216A4.528,4.528,0,0,0,275.313,206c-.088.1-.172.2-.25.307s-.155.22-.223.335a3.956,3.956,0,0,0-.219.43,3.952,3.952,0,0,0-.277.946,3.8,3.8,0,0,0-.052.6A4,4,0,0,0,275.864,211.74Z" transform="translate(-255.872 -191.604)"/><path class="c" d="M339.946,84.91s-3.482-9.325-7.635-4.705S337.045,86.7,339.946,84.91Z" transform="translate(-308.873 -73.956)"/></g></g><g transform="translate(156.651 36.178)"><path d="M51.559.043a1.765,1.765,0,0,0-1.423.688H48.666A2.45,2.45,0,0,0,46.9,0H43.182a2.454,2.454,0,0,0-1.763.732H39.95A1.752,1.752,0,0,0,38.5,0a1.645,1.645,0,0,0-1.716,1.563V2.7A1.645,1.645,0,0,0,38.5,4.263a1.768,1.768,0,0,0,1.383-.645h1.573a2.459,2.459,0,0,0,1.724.688H44.2V10.06h-.817v.83H44.2V11.7h-.936v.831h.817v.809h-.817v.83h.817v.809h-.937v.83h.817v.809h-.7v.83h.817v.809h-.937v.829H44.78v-.83h.937v-.83H44.9v-.809h.7v-.831H44.78v-.809h.937v-.83H44.9v-.809h.817v-.831H44.9V11.7h.937v-.83H45.02V10.3H45.5V4.306h1.4a2.463,2.463,0,0,0,1.724-.688h1.51a1.765,1.765,0,0,0,1.423.688,1.645,1.645,0,0,0,1.716-1.563V1.607A1.647,1.647,0,0,0,51.559.043Z" transform="translate(-36.786)"/></g><g transform="matrix(0.914, -0.407, 0.407, 0.914, 228.273, 94.153)"><path d="M14.557.534a1.593,1.593,0,0,0-1.377.652l-1.449-.049a2.558,2.558,0,0,0-1.764-.8L6.3.212A2.219,2.219,0,0,0,4.591.9L3.144.849A1.853,1.853,0,0,0,1.691.057,1.511,1.511,0,0,0,.057,1.589L.1,2.744A1.787,1.787,0,0,0,1.846,4.389a1.6,1.6,0,0,0,1.339-.61l1.55.052a2.56,2.56,0,0,0,1.723.757l1.007.034.21,5.847-.8-.027.03.844.8.027.029.822L6.812,12.1l.03.845.8.027.029.822-.8-.027.03.844.8.027.029.822-.923-.031.03.844.8.027.029.822L6.991,17.1l.03.844.8.027.029.822-.923-.031.03.843,1.609.054-.03-.844.923.031-.03-.844-.8-.027L8.6,17.156l.687.023-.03-.845-.8-.027-.029-.822.923.031-.03-.844-.8-.027-.029-.822.8.027-.03-.845-.8-.027-.029-.822.923.031-.03-.844-.8-.027-.021-.577.474.016L8.743,4.665l1.381.047A2.229,2.229,0,0,0,11.8,4.069l1.487.05a1.861,1.861,0,0,0,1.427.747,1.511,1.511,0,0,0,1.634-1.532L16.3,2.18A1.789,1.789,0,0,0,14.557.534Z" transform="translate(0 0)"/></g></g></g></g><g transform="translate(3007.815 880.781)"><g transform="translate(0)"><g transform="translate(0)"><g transform="translate(47.836 65.305)"><path d="M61.454,12.31a.749.749,0,0,0-.781.711v.552h-.538a19.22,19.22,0,0,1,1.142-4.892.659.659,0,0,0-.1-.644.807.807,0,0,0-.635-.3H55.865l.287-.771a2.383,2.383,0,0,0-1.015-2.841L56.2,1.273A.654.654,0,0,0,56.16.73a.763.763,0,0,0-.45-.359L54.629.038a.8.8,0,0,0-.99.445L52.577,3.337a2.955,2.955,0,0,0-1.319.257,2.57,2.57,0,0,0-1.383,1.438L48.867,7.741H42.95a.807.807,0,0,0-.635.3.659.659,0,0,0-.1.644,19.224,19.224,0,0,1,1.142,4.892h-.538v-.552a.784.784,0,0,0-1.562,0v2.527a.784.784,0,0,0,1.562,0V15h.625q.005.219.005.439v6.931a2.75,2.75,0,0,0,2.866,2.61H57.178a2.75,2.75,0,0,0,2.866-2.61V15.435q0-.22.005-.439h.625v.552a.784.784,0,0,0,1.562,0V13.021A.749.749,0,0,0,61.454,12.31Zm-10.1-6.821a1.107,1.107,0,0,1,.6-.619,1.278,1.278,0,0,1,.9-.054h0l1.081.333a1.057,1.057,0,0,1,.74,1.364l-.457,1.228h-3.7Zm7.127,16.877a1.251,1.251,0,0,1-1.3,1.187H46.31a1.251,1.251,0,0,1-1.3-1.187V15.435a20.389,20.389,0,0,0-.989-6.272H59.471a20.389,20.389,0,0,0-.989,6.272v6.931Z" transform="translate(-41.253 0)"/></g><g transform="translate(199.23 2.592)"><path d="M61.454,12.31a.749.749,0,0,0-.781.711v.552h-.538a19.22,19.22,0,0,1,1.142-4.892.659.659,0,0,0-.1-.644.807.807,0,0,0-.635-.3H55.865l.287-.771a2.383,2.383,0,0,0-1.015-2.841L56.2,1.273A.654.654,0,0,0,56.16.73a.763.763,0,0,0-.45-.359L54.629.038a.8.8,0,0,0-.99.445L52.577,3.337a2.955,2.955,0,0,0-1.319.257,2.57,2.57,0,0,0-1.383,1.438L48.867,7.741H42.95a.807.807,0,0,0-.635.3.659.659,0,0,0-.1.644,19.224,19.224,0,0,1,1.142,4.892h-.538v-.552a.784.784,0,0,0-1.562,0v2.527a.784.784,0,0,0,1.562,0V15h.625q.005.219.005.439v6.931a2.75,2.75,0,0,0,2.866,2.61H57.178a2.75,2.75,0,0,0,2.866-2.61V15.435q0-.22.005-.439h.625v.552a.784.784,0,0,0,1.562,0V13.021A.749.749,0,0,0,61.454,12.31Zm-10.1-6.821a1.107,1.107,0,0,1,.6-.619,1.278,1.278,0,0,1,.9-.054h0l1.081.333a1.057,1.057,0,0,1,.74,1.364l-.457,1.228h-3.7Zm7.127,16.877a1.251,1.251,0,0,1-1.3,1.187H46.31a1.251,1.251,0,0,1-1.3-1.187V15.435a20.389,20.389,0,0,0-.989-6.272H59.471a20.389,20.389,0,0,0-.989,6.272v6.931Z" transform="translate(-41.253 0)"/></g><g transform="translate(6.308 98.139)"><path d="M24.174,46.527h-.607v-.554h.01a.675.675,0,1,0,0-1.344h-1.4a.707.707,0,0,0-.738.672.7.7,0,0,0,.654.667v.559H20.905V42.063a.692.692,0,0,0-.6-.66l-3.445-.594a37.611,37.611,0,0,0-12.814,0L.6,41.4a.692.692,0,0,0-.6.66V52.335A.692.692,0,0,0,.6,53l3.445.594q1.141.2,2.287.323l-1.377,3.72a.66.66,0,0,0,.464.851.805.805,0,0,0,.236.035.737.737,0,0,0,.7-.458l.385-1.039h7.428l.385,1.039a.736.736,0,0,0,.7.458.8.8,0,0,0,.236-.035.66.66,0,0,0,.464-.851l-1.377-3.72q1.145-.126,2.287-.323L20.3,53a.692.692,0,0,0,.6-.66V47.871h3.268a.328.328,0,0,1,.342.311v.571a.741.741,0,0,0,1.476,0v-.571A1.744,1.744,0,0,0,24.174,46.527Zm-9.319,6V41.874q.288.035.575.075v10.5Q15.142,52.489,14.855,52.524Zm-9.379-.075v-10.5q.287-.04.575-.075v10.65Q5.763,52.488,5.476,52.449Zm11.43-10.264,2.524.435v9.159l-2.524.435Zm-3.527,10.49a35.923,35.923,0,0,1-5.853,0V41.723a35.923,35.923,0,0,1,5.853,0ZM1.476,42.62,4,42.184V52.213l-2.524-.435Zm8.977,11.519q1.307,0,2.613-.092l.6,1.631H7.236l.6-1.631Q9.145,54.138,10.453,54.139Z" transform="translate(0 -40.259)"/></g><g transform="translate(128.264)"><path d="M24.174,46.527h-.607v-.554h.01a.675.675,0,1,0,0-1.344h-1.4a.707.707,0,0,0-.738.672.7.7,0,0,0,.654.667v.559H20.905V42.063a.692.692,0,0,0-.6-.66l-3.445-.594a37.611,37.611,0,0,0-12.814,0L.6,41.4a.692.692,0,0,0-.6.66V52.335A.692.692,0,0,0,.6,53l3.445.594q1.141.2,2.287.323l-1.377,3.72a.66.66,0,0,0,.464.851.805.805,0,0,0,.236.035.737.737,0,0,0,.7-.458l.385-1.039h7.428l.385,1.039a.736.736,0,0,0,.7.458.8.8,0,0,0,.236-.035.66.66,0,0,0,.464-.851l-1.377-3.72q1.145-.126,2.287-.323L20.3,53a.692.692,0,0,0,.6-.66V47.871h3.268a.328.328,0,0,1,.342.311v.571a.741.741,0,0,0,1.476,0v-.571A1.744,1.744,0,0,0,24.174,46.527Zm-9.319,6V41.874q.288.035.575.075v10.5Q15.142,52.489,14.855,52.524Zm-9.379-.075v-10.5q.287-.04.575-.075v10.65Q5.763,52.488,5.476,52.449Zm11.43-10.264,2.524.435v9.159l-2.524.435Zm-3.527,10.49a35.923,35.923,0,0,1-5.853,0V41.723a35.923,35.923,0,0,1,5.853,0ZM1.476,42.62,4,42.184V52.213l-2.524-.435Zm8.977,11.519q1.307,0,2.613-.092l.6,1.631H7.236l.6-1.631Q9.145,54.138,10.453,54.139Z" transform="translate(0 -40.259)"/></g><g transform="translate(170.844 77.752)"><path d="M38.828,14.778c-.127-.492-.441-1.7-.631-2.428-.09-.343-.152-.582-.152-.582-.185-.728-.5-1.937-.63-2.428-.186-.721-1.15-.854-1.679-.741L18.157,12.378c-2.07.448-3.19,3.314-4.644,3.627L5.5,17.728l.123.475a11.007,11.007,0,0,0-2.738,2.026c-.644.745-.457,2.345-.242,3.387-.653-.043-1.152-.086-1.152-.086S-.951,29.052.414,31.094s3.847,3.372,3.847,4.65v3.984c0,1.364-2.738,2.194-3.9,2.492-.25.069-.177.138,0,.138h8.46c.177,0,.251-.069,0-.138-1.167-.3-3.774-1.129-3.774-2.492,0-.027,0-.055,0-.082h0v-3.9c0-1.278,2.483-2.609,3.847-4.651S7.808,23.53,7.808,23.53s-.965.084-1.972.134c-.078-.809-.212-1.793-.346-2.535-.213-1.163.285-1.445.494-1.513l.171.661,8.019-1.725c1.453-.312,3.863,1.8,5.932,1.352s17.052-3.668,17.581-3.781S39.014,15.5,38.828,14.778ZM2.9,32.524a9.389,9.389,0,0,1-1.166-1.278,5.128,5.128,0,0,1-.513-.843,3.015,3.015,0,0,1-.189-.509,2.06,2.06,0,0,1-.068-.51,9.5,9.5,0,0,1,.211-1.9,14.856,14.856,0,0,1,.395-1.6A16,16,0,0,1,2.1,24.356s-.062.64-.175,1.587c-.057.472-.125,1.023-.2,1.611A13.981,13.981,0,0,0,1.6,29.369a1.619,1.619,0,0,0,.049.435,2.648,2.648,0,0,0,.14.385,5.7,5.7,0,0,0,.42.784,16.037,16.037,0,0,0,.966,1.335c.609.768,1.049,1.271,1.049,1.271A11.394,11.394,0,0,1,2.9,32.524ZM36.309,15.111c-.588.167-1.423.437-2.437.708-2.024.557-4.744,1.223-7.481,1.816-1.371.284-2.744.571-4.037.809-.649.115-1.274.226-1.868.337a5.474,5.474,0,0,1-.978.063c-.3-.042-.593-.1-.863-.16l-.739-.243-.633-.277c-.386-.185-.717-.353-.98-.5a8.044,8.044,0,0,1-.8-.5s.324.136.894.341c.283.107.634.223,1.037.345s.862.219,1.357.315c.245.024.505.045.76.057a5.576,5.576,0,0,0,.769-.118c.584-.146,1.2-.3,1.835-.46,1.275-.314,2.642-.616,4.009-.922,2.74-.585,5.5-1.1,7.583-1.421,1.039-.171,1.917-.272,2.528-.361s.964-.113.964-.113S36.9,14.932,36.309,15.111Z" transform="translate(0.001 -8.564)"/></g><g transform="translate(0 51.901)"><path d="M38.828,14.778c-.127-.492-.441-1.7-.631-2.428-.09-.343-.152-.582-.152-.582-.185-.728-.5-1.937-.63-2.428-.186-.721-1.15-.854-1.679-.741L18.157,12.378c-2.07.448-3.19,3.314-4.644,3.627L5.5,17.728l.123.475a11.007,11.007,0,0,0-2.738,2.026c-.644.745-.457,2.345-.242,3.387-.653-.043-1.152-.086-1.152-.086S-.951,29.052.414,31.094s3.847,3.372,3.847,4.65v3.984c0,1.364-2.738,2.194-3.9,2.492-.25.069-.177.138,0,.138h8.46c.177,0,.251-.069,0-.138-1.167-.3-3.774-1.129-3.774-2.492,0-.027,0-.055,0-.082h0v-3.9c0-1.278,2.483-2.609,3.847-4.651S7.808,23.53,7.808,23.53s-.965.084-1.972.134c-.078-.809-.212-1.793-.346-2.535-.213-1.163.285-1.445.494-1.513l.171.661,8.019-1.725c1.453-.312,3.863,1.8,5.932,1.352s17.052-3.668,17.581-3.781S39.014,15.5,38.828,14.778ZM2.9,32.524a9.389,9.389,0,0,1-1.166-1.278,5.128,5.128,0,0,1-.513-.843,3.015,3.015,0,0,1-.189-.509,2.06,2.06,0,0,1-.068-.51,9.5,9.5,0,0,1,.211-1.9,14.856,14.856,0,0,1,.395-1.6A16,16,0,0,1,2.1,24.356s-.062.64-.175,1.587c-.057.472-.125,1.023-.2,1.611A13.981,13.981,0,0,0,1.6,29.369a1.619,1.619,0,0,0,.049.435,2.648,2.648,0,0,0,.14.385,5.7,5.7,0,0,0,.42.784,16.037,16.037,0,0,0,.966,1.335c.609.768,1.049,1.271,1.049,1.271A11.394,11.394,0,0,1,2.9,32.524ZM36.309,15.111c-.588.167-1.423.437-2.437.708-2.024.557-4.744,1.223-7.481,1.816-1.371.284-2.744.571-4.037.809-.649.115-1.274.226-1.868.337a5.474,5.474,0,0,1-.978.063c-.3-.042-.593-.1-.863-.16l-.739-.243-.633-.277c-.386-.185-.717-.353-.98-.5a8.044,8.044,0,0,1-.8-.5s.324.136.894.341c.283.107.634.223,1.037.345s.862.219,1.357.315c.245.024.505.045.76.057a5.576,5.576,0,0,0,.769-.118c.584-.146,1.2-.3,1.835-.46,1.275-.314,2.642-.616,4.009-.922,2.74-.585,5.5-1.1,7.583-1.421,1.039-.171,1.917-.272,2.528-.361s.964-.113.964-.113S36.9,14.932,36.309,15.111Z" transform="translate(0.001 -8.564)"/></g><g transform="translate(12.616 3.91)"><g transform="translate(0 0)"><path d="M60.847,178.64a4.12,4.12,0,0,0,3.455,4.808,4.521,4.521,0,0,0,5.352-3.138l.739-6.169c-2.427-1.2-1.537,3.771-5.729,2.948C61.785,176.521,61,178.2,60.847,178.64Z" transform="translate(-56.846 -159.373)"/><path d="M53.4,52.9a1.113,1.113,0,0,0-1.375-.628L49,53.19l-1.9-5.207a7.627,7.627,0,0,0,3.634-3.251,6.692,6.692,0,0,0,.4-5.65L46.174,28.627l-13.206,4L33.85,35.9,22.563,33.676,18.841,44.641a6.712,6.712,0,0,0,1.1,5.493,7.838,7.838,0,0,0,4,2.873l-1.274,5.364-3.109-.611a1.1,1.1,0,0,0-1.292.759.994.994,0,0,0,.834,1.177l4.162.819s0,0,.007,0h.015l4.163.819a1.18,1.18,0,0,0,.231.022,1.07,1.07,0,0,0,1.061-.781A1,1,0,0,0,27.9,59.4l-3.111-.613,1.269-5.342c.208.015.416.031.625.031a7.917,7.917,0,0,0,7.83-5.831l.882-6.024.579,2.146a7.967,7.967,0,0,0,7.6,4.992,8.675,8.675,0,0,0,1.473-.138l1.9,5.192-3.017.913a.973.973,0,0,0-.69,1.252,1.086,1.086,0,0,0,1.032.678,1.164,1.164,0,0,0,.343-.051l8.1-2.453A.974.974,0,0,0,53.4,52.9ZM32.373,47.308a5.935,5.935,0,0,1-6.934,4.067h0a5.82,5.82,0,0,1-3.671-2.313,4.868,4.868,0,0,1-.823-3.918L24.052,36,33.746,37.9Zm5.69-4.088-2.5-9.289,9.412-2.852,4.14,8.708a4.857,4.857,0,0,1-.319,4.057,5.669,5.669,0,0,1-3.377,2.662,6.3,6.3,0,0,1-1.845.275A5.792,5.792,0,0,1,38.063,43.22Z" transform="translate(-18.236 -26.228)"/><path d="M241.679,126.978c-.209-.423-1.184-2.015-3.978-1.169-4.072,1.233-3.778-3.8-6.045-2.366l1.464,6.058a4.619,4.619,0,0,0,5.691,2.6A4.036,4.036,0,0,0,241.679,126.978Z" transform="translate(-212.012 -112.86)"/><path d="M124.178,2.239A1.166,1.166,0,0,0,125.34,1.06,1.193,1.193,0,0,0,124.046,0a1.165,1.165,0,0,0-1.164,1.18A1.2,1.2,0,0,0,124.178,2.239Z" transform="translate(-113.249 0)"/><path d="M175.833,25.58a1.165,1.165,0,0,0,1.161-1.18,1.194,1.194,0,0,0-1.294-1.058,1.166,1.166,0,0,0-1.164,1.179A1.2,1.2,0,0,0,175.833,25.58Z" transform="translate(-160.149 -21.385)"/><path d="M129.527,48.373a1.193,1.193,0,0,0,1.294,1.058,1.166,1.166,0,0,0,1.164-1.18,1.2,1.2,0,0,0-1.3-1.058A1.165,1.165,0,0,0,129.527,48.373Z" transform="translate(-119.282 -43.236)"/></g></g><g transform="translate(103.558 65.187)"><g transform="translate(0 0)"><path d="M60.847,178.64a4.12,4.12,0,0,0,3.455,4.808,4.521,4.521,0,0,0,5.352-3.138l.739-6.169c-2.427-1.2-1.537,3.771-5.729,2.948C61.785,176.521,61,178.2,60.847,178.64Z" transform="translate(-56.846 -159.373)"/><path d="M53.4,52.9a1.113,1.113,0,0,0-1.375-.628L49,53.19l-1.9-5.207a7.627,7.627,0,0,0,3.634-3.251,6.692,6.692,0,0,0,.4-5.65L46.174,28.627l-13.206,4L33.85,35.9,22.563,33.676,18.841,44.641a6.712,6.712,0,0,0,1.1,5.493,7.838,7.838,0,0,0,4,2.873l-1.274,5.364-3.109-.611a1.1,1.1,0,0,0-1.292.759.994.994,0,0,0,.834,1.177l4.162.819s0,0,.007,0h.015l4.163.819a1.18,1.18,0,0,0,.231.022,1.07,1.07,0,0,0,1.061-.781A1,1,0,0,0,27.9,59.4l-3.111-.613,1.269-5.342c.208.015.416.031.625.031a7.917,7.917,0,0,0,7.83-5.831l.882-6.024.579,2.146a7.967,7.967,0,0,0,7.6,4.992,8.675,8.675,0,0,0,1.473-.138l1.9,5.192-3.017.913a.973.973,0,0,0-.69,1.252,1.086,1.086,0,0,0,1.032.678,1.164,1.164,0,0,0,.343-.051l8.1-2.453A.974.974,0,0,0,53.4,52.9ZM32.373,47.308a5.935,5.935,0,0,1-6.934,4.067h0a5.82,5.82,0,0,1-3.671-2.313,4.868,4.868,0,0,1-.823-3.918L24.052,36,33.746,37.9Zm5.69-4.088-2.5-9.289,9.412-2.852,4.14,8.708a4.857,4.857,0,0,1-.319,4.057,5.669,5.669,0,0,1-3.377,2.662,6.3,6.3,0,0,1-1.845.275A5.792,5.792,0,0,1,38.063,43.22Z" transform="translate(-18.236 -26.228)"/><path d="M241.679,126.978c-.209-.423-1.184-2.015-3.978-1.169-4.072,1.233-3.778-3.8-6.045-2.366l1.464,6.058a4.619,4.619,0,0,0,5.691,2.6A4.036,4.036,0,0,0,241.679,126.978Z" transform="translate(-212.012 -112.86)"/><path d="M124.178,2.239A1.166,1.166,0,0,0,125.34,1.06,1.193,1.193,0,0,0,124.046,0a1.165,1.165,0,0,0-1.164,1.18A1.2,1.2,0,0,0,124.178,2.239Z" transform="translate(-113.249 0)"/><path d="M175.833,25.58a1.165,1.165,0,0,0,1.161-1.18,1.194,1.194,0,0,0-1.294-1.058,1.166,1.166,0,0,0-1.164,1.179A1.2,1.2,0,0,0,175.833,25.58Z" transform="translate(-160.149 -21.385)"/><path d="M129.527,48.373a1.193,1.193,0,0,0,1.294,1.058,1.166,1.166,0,0,0,1.164-1.18,1.2,1.2,0,0,0-1.3-1.058A1.165,1.165,0,0,0,129.527,48.373Z" transform="translate(-119.282 -43.236)"/></g></g><g transform="translate(83.582 18.39)"><g transform="translate(0 0)"><path class="c" d="M12.145,362.311a4.63,4.63,0,0,0,4.031-2.224,4.876,4.876,0,0,1-1.6-2.332,5.888,5.888,0,0,1-1.16.118,5.508,5.508,0,0,1-4.668-2.46,3.925,3.925,0,0,0-1.156,2.752A4.37,4.37,0,0,0,12.145,362.311Z" transform="translate(-7.59 -333.058)"/><path class="c" d="M26.324,262.342a3.858,3.858,0,0,0,.182.356,4.629,4.629,0,0,0,4.035,2.23,4.976,4.976,0,0,0,1-.1,4.352,4.352,0,0,1,.3-2.265c.05-.123.1-.243.164-.361s.12-.231.189-.342a5.09,5.09,0,0,1,1.258-1.38,5.343,5.343,0,0,1-4.873-3.429,4.138,4.138,0,0,0-2.582,3.733,3.8,3.8,0,0,0,.191,1.185A4.011,4.011,0,0,0,26.324,262.342Z" transform="translate(-24.716 -240.882)"/><path class="c" d="M121.524,309.836a4.624,4.624,0,0,1-.415-.984h0q-.211.062-.412.142a4.44,4.44,0,0,0-2.216,1.878,3.879,3.879,0,0,0-.337.761,3.794,3.794,0,0,0-.185,1.162c0,.112.009.221.019.331a3.821,3.821,0,0,0,.056.4,3.68,3.68,0,0,0,.094.375,4.073,4.073,0,0,0,1.133,1.8,4.331,4.331,0,0,0,.341.288q.168.128.35.241a4.842,4.842,0,0,0,2.562.721,4.37,4.37,0,0,0,4.554-4.148c0-.115-.009-.228-.019-.341a5.935,5.935,0,0,1-.724.05A5.48,5.48,0,0,1,121.524,309.836Z" transform="translate(-110.332 -289.427)"/><path class="c" d="M72.063,190.169c.029.126.065.25.1.372a4.529,4.529,0,0,0,4.357,2.943,4.948,4.948,0,0,0,1.181-.147q.2-.051.4-.117l.03-.01c-.012-.133-.022-.267-.022-.4a4.49,4.49,0,0,1,.029-.509,4.748,4.748,0,0,1,1.609-3.011,4.617,4.617,0,0,1-.98-2.43,5.8,5.8,0,0,1-2.249.453,5.716,5.716,0,0,1-3.169-.946,3.964,3.964,0,0,0-1.385,2.972,3.776,3.776,0,0,0,.029.453A3.635,3.635,0,0,0,72.063,190.169Z" transform="translate(-67.525 -174.642)"/><path class="c" d="M179.082,249.1a4.6,4.6,0,0,0,2.133-1.332,4.746,4.746,0,0,1-1.941-3.77c0-.127.011-.252.021-.376a5.893,5.893,0,0,1-.976.085,5.79,5.79,0,0,1-2.473-.551c-.129-.061-.254-.128-.377-.2s-.25-.149-.369-.231a5.3,5.3,0,0,1-.636-.5,3.958,3.958,0,0,0-1.334,2.931c0,.01,0,.019,0,.029,0,.105.008.209.017.312,0,.041.006.082.011.122.011.087.027.172.043.258.01.049.017.1.028.145.018.078.042.153.065.23a4.511,4.511,0,0,0,4.388,3.052,5,5,0,0,0,.577-.037c.141-.016.28-.037.417-.065S178.95,249.135,179.082,249.1Z" transform="translate(-161.696 -226.986)"/><path class="c" d="M73.673,64.7q.175.128.364.24a4.905,4.905,0,0,0,4.736.13c.008-.082.022-.162.035-.242.021-.137.047-.272.08-.4s.065-.253.108-.376a5,5,0,0,1,2.08-2.567s0-.007,0-.011a4.574,4.574,0,0,0-9.109,0,3.964,3.964,0,0,0,1.385,2.972C73.455,64.529,73.561,64.616,73.673,64.7Z" transform="translate(-67.522 -53.714)"/><path class="c" d="M182.512,10.655c-.011.035-.02.07-.03.1a3.76,3.76,0,0,0-.093.412c-.007.039-.015.078-.02.118-.016.117-.025.236-.03.356,0,.049-.008.1-.008.146,0,0,0,.008,0,.011a3.869,3.869,0,0,0,.809,2.353c.08.1.163.206.253.3s.186.194.287.285c.042.037.086.071.13.107a4.515,4.515,0,0,0,.4.3q.187.124.387.231a4.86,4.86,0,0,0,2.285.565,4.961,4.961,0,0,0,1.122-.132,4.647,4.647,0,0,1,.538-1.229c.07-.111.141-.222.219-.329s.165-.207.252-.307a5.424,5.424,0,0,1,2.37-1.556,3.79,3.79,0,0,0,.052-.6,3.944,3.944,0,0,0-1.265-2.86c.057-.131.111-.262.173-.389s.126-.238.191-.356c1.656-3.031,4.887-4.847,8.289-6.141,1.316-.5.739-2.48-.6-1.972-4.017,1.529-7.614,3.595-9.609,7.071-.065.112-.123.23-.185.345s-.127.228-.185.347a4.941,4.941,0,0,0-1.367-.192,4.863,4.863,0,0,0-2.25.546,4.679,4.679,0,0,0-.467.28,4.483,4.483,0,0,0-.532.419A4.087,4.087,0,0,0,182.512,10.655Z" transform="translate(-170.263 -0.001)"/><path class="c" d="M275.864,211.74q.161.127.335.24t.351.208a4.859,4.859,0,0,0,2.3.571,4.166,4.166,0,1,0,0-8.3,4.961,4.961,0,0,0-1.122.132c-.161.037-.318.082-.472.134a4.725,4.725,0,0,0-.533.216A4.528,4.528,0,0,0,275.313,206c-.088.1-.172.2-.25.307s-.155.22-.223.335a3.956,3.956,0,0,0-.219.43,3.952,3.952,0,0,0-.277.946,3.8,3.8,0,0,0-.052.6A4,4,0,0,0,275.864,211.74Z" transform="translate(-255.872 -191.604)"/><path class="c" d="M339.946,84.91s-3.482-9.325-7.635-4.705S337.045,86.7,339.946,84.91Z" transform="translate(-308.873 -73.956)"/></g></g><g transform="translate(210.269 36.103)"><g transform="translate(0 0)"><path class="c" d="M12.145,362.311a4.63,4.63,0,0,0,4.031-2.224,4.876,4.876,0,0,1-1.6-2.332,5.888,5.888,0,0,1-1.16.118,5.508,5.508,0,0,1-4.668-2.46,3.925,3.925,0,0,0-1.156,2.752A4.37,4.37,0,0,0,12.145,362.311Z" transform="translate(-7.59 -333.058)"/><path class="c" d="M26.324,262.342a3.858,3.858,0,0,0,.182.356,4.629,4.629,0,0,0,4.035,2.23,4.976,4.976,0,0,0,1-.1,4.352,4.352,0,0,1,.3-2.265c.05-.123.1-.243.164-.361s.12-.231.189-.342a5.09,5.09,0,0,1,1.258-1.38,5.343,5.343,0,0,1-4.873-3.429,4.138,4.138,0,0,0-2.582,3.733,3.8,3.8,0,0,0,.191,1.185A4.011,4.011,0,0,0,26.324,262.342Z" transform="translate(-24.716 -240.882)"/><path class="c" d="M121.524,309.836a4.624,4.624,0,0,1-.415-.984h0q-.211.062-.412.142a4.44,4.44,0,0,0-2.216,1.878,3.879,3.879,0,0,0-.337.761,3.794,3.794,0,0,0-.185,1.162c0,.112.009.221.019.331a3.821,3.821,0,0,0,.056.4,3.68,3.68,0,0,0,.094.375,4.073,4.073,0,0,0,1.133,1.8,4.331,4.331,0,0,0,.341.288q.168.128.35.241a4.842,4.842,0,0,0,2.562.721,4.37,4.37,0,0,0,4.554-4.148c0-.115-.009-.228-.019-.341a5.935,5.935,0,0,1-.724.05A5.48,5.48,0,0,1,121.524,309.836Z" transform="translate(-110.332 -289.427)"/><path class="c" d="M72.063,190.169c.029.126.065.25.1.372a4.529,4.529,0,0,0,4.357,2.943,4.948,4.948,0,0,0,1.181-.147q.2-.051.4-.117l.03-.01c-.012-.133-.022-.267-.022-.4a4.49,4.49,0,0,1,.029-.509,4.748,4.748,0,0,1,1.609-3.011,4.617,4.617,0,0,1-.98-2.43,5.8,5.8,0,0,1-2.249.453,5.716,5.716,0,0,1-3.169-.946,3.964,3.964,0,0,0-1.385,2.972,3.776,3.776,0,0,0,.029.453A3.635,3.635,0,0,0,72.063,190.169Z" transform="translate(-67.525 -174.642)"/><path class="c" d="M179.082,249.1a4.6,4.6,0,0,0,2.133-1.332,4.746,4.746,0,0,1-1.941-3.77c0-.127.011-.252.021-.376a5.893,5.893,0,0,1-.976.085,5.79,5.79,0,0,1-2.473-.551c-.129-.061-.254-.128-.377-.2s-.25-.149-.369-.231a5.3,5.3,0,0,1-.636-.5,3.958,3.958,0,0,0-1.334,2.931c0,.01,0,.019,0,.029,0,.105.008.209.017.312,0,.041.006.082.011.122.011.087.027.172.043.258.01.049.017.1.028.145.018.078.042.153.065.23a4.511,4.511,0,0,0,4.388,3.052,5,5,0,0,0,.577-.037c.141-.016.28-.037.417-.065S178.95,249.135,179.082,249.1Z" transform="translate(-161.696 -226.986)"/><path class="c" d="M73.673,64.7q.175.128.364.24a4.905,4.905,0,0,0,4.736.13c.008-.082.022-.162.035-.242.021-.137.047-.272.08-.4s.065-.253.108-.376a5,5,0,0,1,2.08-2.567s0-.007,0-.011a4.574,4.574,0,0,0-9.109,0,3.964,3.964,0,0,0,1.385,2.972C73.455,64.529,73.561,64.616,73.673,64.7Z" transform="translate(-67.522 -53.714)"/><path class="c" d="M182.512,10.655c-.011.035-.02.07-.03.1a3.76,3.76,0,0,0-.093.412c-.007.039-.015.078-.02.118-.016.117-.025.236-.03.356,0,.049-.008.1-.008.146,0,0,0,.008,0,.011a3.869,3.869,0,0,0,.809,2.353c.08.1.163.206.253.3s.186.194.287.285c.042.037.086.071.13.107a4.515,4.515,0,0,0,.4.3q.187.124.387.231a4.86,4.86,0,0,0,2.285.565,4.961,4.961,0,0,0,1.122-.132,4.647,4.647,0,0,1,.538-1.229c.07-.111.141-.222.219-.329s.165-.207.252-.307a5.424,5.424,0,0,1,2.37-1.556,3.79,3.79,0,0,0,.052-.6,3.944,3.944,0,0,0-1.265-2.86c.057-.131.111-.262.173-.389s.126-.238.191-.356c1.656-3.031,4.887-4.847,8.289-6.141,1.316-.5.739-2.48-.6-1.972-4.017,1.529-7.614,3.595-9.609,7.071-.065.112-.123.23-.185.345s-.127.228-.185.347a4.941,4.941,0,0,0-1.367-.192,4.863,4.863,0,0,0-2.25.546,4.679,4.679,0,0,0-.467.28,4.483,4.483,0,0,0-.532.419A4.087,4.087,0,0,0,182.512,10.655Z" transform="translate(-170.263 -0.001)"/><path class="c" d="M275.864,211.74q.161.127.335.24t.351.208a4.859,4.859,0,0,0,2.3.571,4.166,4.166,0,1,0,0-8.3,4.961,4.961,0,0,0-1.122.132c-.161.037-.318.082-.472.134a4.725,4.725,0,0,0-.533.216A4.528,4.528,0,0,0,275.313,206c-.088.1-.172.2-.25.307s-.155.22-.223.335a3.956,3.956,0,0,0-.219.43,3.952,3.952,0,0,0-.277.946,3.8,3.8,0,0,0-.052.6A4,4,0,0,0,275.864,211.74Z" transform="translate(-255.872 -191.604)"/><path class="c" d="M339.946,84.91s-3.482-9.325-7.635-4.705S337.045,86.7,339.946,84.91Z" transform="translate(-308.873 -73.956)"/></g></g><g transform="translate(156.651 36.178)"><path d="M51.559.043a1.765,1.765,0,0,0-1.423.688H48.666A2.45,2.45,0,0,0,46.9,0H43.182a2.454,2.454,0,0,0-1.763.732H39.95A1.752,1.752,0,0,0,38.5,0a1.645,1.645,0,0,0-1.716,1.563V2.7A1.645,1.645,0,0,0,38.5,4.263a1.768,1.768,0,0,0,1.383-.645h1.573a2.459,2.459,0,0,0,1.724.688H44.2V10.06h-.817v.83H44.2V11.7h-.936v.831h.817v.809h-.817v.83h.817v.809h-.937v.83h.817v.809h-.7v.83h.817v.809h-.937v.829H44.78v-.83h.937v-.83H44.9v-.809h.7v-.831H44.78v-.809h.937v-.83H44.9v-.809h.817v-.831H44.9V11.7h.937v-.83H45.02V10.3H45.5V4.306h1.4a2.463,2.463,0,0,0,1.724-.688h1.51a1.765,1.765,0,0,0,1.423.688,1.645,1.645,0,0,0,1.716-1.563V1.607A1.647,1.647,0,0,0,51.559.043Z" transform="translate(-36.786)"/></g><g transform="matrix(0.914, -0.407, 0.407, 0.914, 228.273, 94.153)"><path d="M14.557.534a1.593,1.593,0,0,0-1.377.652l-1.449-.049a2.558,2.558,0,0,0-1.764-.8L6.3.212A2.219,2.219,0,0,0,4.591.9L3.144.849A1.853,1.853,0,0,0,1.691.057,1.511,1.511,0,0,0,.057,1.589L.1,2.744A1.787,1.787,0,0,0,1.846,4.389a1.6,1.6,0,0,0,1.339-.61l1.55.052a2.56,2.56,0,0,0,1.723.757l1.007.034.21,5.847-.8-.027.03.844.8.027.029.822L6.812,12.1l.03.845.8.027.029.822-.8-.027.03.844.8.027.029.822-.923-.031.03.844.8.027.029.822L6.991,17.1l.03.844.8.027.029.822-.923-.031.03.843,1.609.054-.03-.844.923.031-.03-.844-.8-.027L8.6,17.156l.687.023-.03-.845-.8-.027-.029-.822.923.031-.03-.844-.8-.027-.029-.822.8.027-.03-.845-.8-.027-.029-.822.923.031-.03-.844-.8-.027-.021-.577.474.016L8.743,4.665l1.381.047A2.229,2.229,0,0,0,11.8,4.069l1.487.05a1.861,1.861,0,0,0,1.427.747,1.511,1.511,0,0,0,1.634-1.532L16.3,2.18A1.789,1.789,0,0,0,14.557.534Z" transform="translate(0 0)"/></g></g></g></g><g transform="translate(2742 882.239)"><g transform="translate(0)"><g transform="translate(47.836 65.305)"><path d="M61.454,12.31a.749.749,0,0,0-.781.711v.552h-.538a19.22,19.22,0,0,1,1.142-4.892.659.659,0,0,0-.1-.644.807.807,0,0,0-.635-.3H55.865l.287-.771a2.383,2.383,0,0,0-1.015-2.841L56.2,1.273A.654.654,0,0,0,56.16.73a.763.763,0,0,0-.45-.359L54.629.038a.8.8,0,0,0-.99.445L52.577,3.337a2.955,2.955,0,0,0-1.319.257,2.57,2.57,0,0,0-1.383,1.438L48.867,7.741H42.95a.807.807,0,0,0-.635.3.659.659,0,0,0-.1.644,19.224,19.224,0,0,1,1.142,4.892h-.538v-.552a.784.784,0,0,0-1.562,0v2.527a.784.784,0,0,0,1.562,0V15h.625q.005.219.005.439v6.931a2.75,2.75,0,0,0,2.866,2.61H57.178a2.75,2.75,0,0,0,2.866-2.61V15.435q0-.22.005-.439h.625v.552a.784.784,0,0,0,1.562,0V13.021A.749.749,0,0,0,61.454,12.31Zm-10.1-6.821a1.107,1.107,0,0,1,.6-.619,1.278,1.278,0,0,1,.9-.054h0l1.081.333a1.057,1.057,0,0,1,.74,1.364l-.457,1.228h-3.7Zm7.127,16.877a1.251,1.251,0,0,1-1.3,1.187H46.31a1.251,1.251,0,0,1-1.3-1.187V15.435a20.389,20.389,0,0,0-.989-6.272H59.471a20.389,20.389,0,0,0-.989,6.272v6.931Z" transform="translate(-41.253 0)"/></g><g transform="translate(199.23 2.592)"><path d="M61.454,12.31a.749.749,0,0,0-.781.711v.552h-.538a19.22,19.22,0,0,1,1.142-4.892.659.659,0,0,0-.1-.644.807.807,0,0,0-.635-.3H55.865l.287-.771a2.383,2.383,0,0,0-1.015-2.841L56.2,1.273A.654.654,0,0,0,56.16.73a.763.763,0,0,0-.45-.359L54.629.038a.8.8,0,0,0-.99.445L52.577,3.337a2.955,2.955,0,0,0-1.319.257,2.57,2.57,0,0,0-1.383,1.438L48.867,7.741H42.95a.807.807,0,0,0-.635.3.659.659,0,0,0-.1.644,19.224,19.224,0,0,1,1.142,4.892h-.538v-.552a.784.784,0,0,0-1.562,0v2.527a.784.784,0,0,0,1.562,0V15h.625q.005.219.005.439v6.931a2.75,2.75,0,0,0,2.866,2.61H57.178a2.75,2.75,0,0,0,2.866-2.61V15.435q0-.22.005-.439h.625v.552a.784.784,0,0,0,1.562,0V13.021A.749.749,0,0,0,61.454,12.31Zm-10.1-6.821a1.107,1.107,0,0,1,.6-.619,1.278,1.278,0,0,1,.9-.054h0l1.081.333a1.057,1.057,0,0,1,.74,1.364l-.457,1.228h-3.7Zm7.127,16.877a1.251,1.251,0,0,1-1.3,1.187H46.31a1.251,1.251,0,0,1-1.3-1.187V15.435a20.389,20.389,0,0,0-.989-6.272H59.471a20.389,20.389,0,0,0-.989,6.272v6.931Z" transform="translate(-41.253 0)"/></g><g transform="translate(6.308 98.139)"><path d="M24.174,46.527h-.607v-.554h.01a.675.675,0,1,0,0-1.344h-1.4a.707.707,0,0,0-.738.672.7.7,0,0,0,.654.667v.559H20.905V42.063a.692.692,0,0,0-.6-.66l-3.445-.594a37.611,37.611,0,0,0-12.814,0L.6,41.4a.692.692,0,0,0-.6.66V52.335A.692.692,0,0,0,.6,53l3.445.594q1.141.2,2.287.323l-1.377,3.72a.66.66,0,0,0,.464.851.805.805,0,0,0,.236.035.737.737,0,0,0,.7-.458l.385-1.039h7.428l.385,1.039a.736.736,0,0,0,.7.458.8.8,0,0,0,.236-.035.66.66,0,0,0,.464-.851l-1.377-3.72q1.145-.126,2.287-.323L20.3,53a.692.692,0,0,0,.6-.66V47.871h3.268a.328.328,0,0,1,.342.311v.571a.741.741,0,0,0,1.476,0v-.571A1.744,1.744,0,0,0,24.174,46.527Zm-9.319,6V41.874q.288.035.575.075v10.5Q15.142,52.489,14.855,52.524Zm-9.379-.075v-10.5q.287-.04.575-.075v10.65Q5.763,52.488,5.476,52.449Zm11.43-10.264,2.524.435v9.159l-2.524.435Zm-3.527,10.49a35.923,35.923,0,0,1-5.853,0V41.723a35.923,35.923,0,0,1,5.853,0ZM1.476,42.62,4,42.184V52.213l-2.524-.435Zm8.977,11.519q1.307,0,2.613-.092l.6,1.631H7.236l.6-1.631Q9.145,54.138,10.453,54.139Z" transform="translate(0 -40.259)"/></g><g transform="translate(128.264)"><path d="M24.174,46.527h-.607v-.554h.01a.675.675,0,1,0,0-1.344h-1.4a.707.707,0,0,0-.738.672.7.7,0,0,0,.654.667v.559H20.905V42.063a.692.692,0,0,0-.6-.66l-3.445-.594a37.611,37.611,0,0,0-12.814,0L.6,41.4a.692.692,0,0,0-.6.66V52.335A.692.692,0,0,0,.6,53l3.445.594q1.141.2,2.287.323l-1.377,3.72a.66.66,0,0,0,.464.851.805.805,0,0,0,.236.035.737.737,0,0,0,.7-.458l.385-1.039h7.428l.385,1.039a.736.736,0,0,0,.7.458.8.8,0,0,0,.236-.035.66.66,0,0,0,.464-.851l-1.377-3.72q1.145-.126,2.287-.323L20.3,53a.692.692,0,0,0,.6-.66V47.871h3.268a.328.328,0,0,1,.342.311v.571a.741.741,0,0,0,1.476,0v-.571A1.744,1.744,0,0,0,24.174,46.527Zm-9.319,6V41.874q.288.035.575.075v10.5Q15.142,52.489,14.855,52.524Zm-9.379-.075v-10.5q.287-.04.575-.075v10.65Q5.763,52.488,5.476,52.449Zm11.43-10.264,2.524.435v9.159l-2.524.435Zm-3.527,10.49a35.923,35.923,0,0,1-5.853,0V41.723a35.923,35.923,0,0,1,5.853,0ZM1.476,42.62,4,42.184V52.213l-2.524-.435Zm8.977,11.519q1.307,0,2.613-.092l.6,1.631H7.236l.6-1.631Q9.145,54.138,10.453,54.139Z" transform="translate(0 -40.259)"/></g><g transform="translate(170.844 77.752)"><path d="M38.828,14.778c-.127-.492-.441-1.7-.631-2.428-.09-.343-.152-.582-.152-.582-.185-.728-.5-1.937-.63-2.428-.186-.721-1.15-.854-1.679-.741L18.157,12.378c-2.07.448-3.19,3.314-4.644,3.627L5.5,17.728l.123.475a11.007,11.007,0,0,0-2.738,2.026c-.644.745-.457,2.345-.242,3.387-.653-.043-1.152-.086-1.152-.086S-.951,29.052.414,31.094s3.847,3.372,3.847,4.65v3.984c0,1.364-2.738,2.194-3.9,2.492-.25.069-.177.138,0,.138h8.46c.177,0,.251-.069,0-.138-1.167-.3-3.774-1.129-3.774-2.492,0-.027,0-.055,0-.082h0v-3.9c0-1.278,2.483-2.609,3.847-4.651S7.808,23.53,7.808,23.53s-.965.084-1.972.134c-.078-.809-.212-1.793-.346-2.535-.213-1.163.285-1.445.494-1.513l.171.661,8.019-1.725c1.453-.312,3.863,1.8,5.932,1.352s17.052-3.668,17.581-3.781S39.014,15.5,38.828,14.778ZM2.9,32.524a9.389,9.389,0,0,1-1.166-1.278,5.128,5.128,0,0,1-.513-.843,3.015,3.015,0,0,1-.189-.509,2.06,2.06,0,0,1-.068-.51,9.5,9.5,0,0,1,.211-1.9,14.856,14.856,0,0,1,.395-1.6A16,16,0,0,1,2.1,24.356s-.062.64-.175,1.587c-.057.472-.125,1.023-.2,1.611A13.981,13.981,0,0,0,1.6,29.369a1.619,1.619,0,0,0,.049.435,2.648,2.648,0,0,0,.14.385,5.7,5.7,0,0,0,.42.784,16.037,16.037,0,0,0,.966,1.335c.609.768,1.049,1.271,1.049,1.271A11.394,11.394,0,0,1,2.9,32.524ZM36.309,15.111c-.588.167-1.423.437-2.437.708-2.024.557-4.744,1.223-7.481,1.816-1.371.284-2.744.571-4.037.809-.649.115-1.274.226-1.868.337a5.474,5.474,0,0,1-.978.063c-.3-.042-.593-.1-.863-.16l-.739-.243-.633-.277c-.386-.185-.717-.353-.98-.5a8.044,8.044,0,0,1-.8-.5s.324.136.894.341c.283.107.634.223,1.037.345s.862.219,1.357.315c.245.024.505.045.76.057a5.576,5.576,0,0,0,.769-.118c.584-.146,1.2-.3,1.835-.46,1.275-.314,2.642-.616,4.009-.922,2.74-.585,5.5-1.1,7.583-1.421,1.039-.171,1.917-.272,2.528-.361s.964-.113.964-.113S36.9,14.932,36.309,15.111Z" transform="translate(0.001 -8.564)"/></g><g transform="translate(0 51.901)"><path d="M38.828,14.778c-.127-.492-.441-1.7-.631-2.428-.09-.343-.152-.582-.152-.582-.185-.728-.5-1.937-.63-2.428-.186-.721-1.15-.854-1.679-.741L18.157,12.378c-2.07.448-3.19,3.314-4.644,3.627L5.5,17.728l.123.475a11.007,11.007,0,0,0-2.738,2.026c-.644.745-.457,2.345-.242,3.387-.653-.043-1.152-.086-1.152-.086S-.951,29.052.414,31.094s3.847,3.372,3.847,4.65v3.984c0,1.364-2.738,2.194-3.9,2.492-.25.069-.177.138,0,.138h8.46c.177,0,.251-.069,0-.138-1.167-.3-3.774-1.129-3.774-2.492,0-.027,0-.055,0-.082h0v-3.9c0-1.278,2.483-2.609,3.847-4.651S7.808,23.53,7.808,23.53s-.965.084-1.972.134c-.078-.809-.212-1.793-.346-2.535-.213-1.163.285-1.445.494-1.513l.171.661,8.019-1.725c1.453-.312,3.863,1.8,5.932,1.352s17.052-3.668,17.581-3.781S39.014,15.5,38.828,14.778ZM2.9,32.524a9.389,9.389,0,0,1-1.166-1.278,5.128,5.128,0,0,1-.513-.843,3.015,3.015,0,0,1-.189-.509,2.06,2.06,0,0,1-.068-.51,9.5,9.5,0,0,1,.211-1.9,14.856,14.856,0,0,1,.395-1.6A16,16,0,0,1,2.1,24.356s-.062.64-.175,1.587c-.057.472-.125,1.023-.2,1.611A13.981,13.981,0,0,0,1.6,29.369a1.619,1.619,0,0,0,.049.435,2.648,2.648,0,0,0,.14.385,5.7,5.7,0,0,0,.42.784,16.037,16.037,0,0,0,.966,1.335c.609.768,1.049,1.271,1.049,1.271A11.394,11.394,0,0,1,2.9,32.524ZM36.309,15.111c-.588.167-1.423.437-2.437.708-2.024.557-4.744,1.223-7.481,1.816-1.371.284-2.744.571-4.037.809-.649.115-1.274.226-1.868.337a5.474,5.474,0,0,1-.978.063c-.3-.042-.593-.1-.863-.16l-.739-.243-.633-.277c-.386-.185-.717-.353-.98-.5a8.044,8.044,0,0,1-.8-.5s.324.136.894.341c.283.107.634.223,1.037.345s.862.219,1.357.315c.245.024.505.045.76.057a5.576,5.576,0,0,0,.769-.118c.584-.146,1.2-.3,1.835-.46,1.275-.314,2.642-.616,4.009-.922,2.74-.585,5.5-1.1,7.583-1.421,1.039-.171,1.917-.272,2.528-.361s.964-.113.964-.113S36.9,14.932,36.309,15.111Z" transform="translate(0.001 -8.564)"/></g><g transform="translate(12.616 3.91)"><g transform="translate(0 0)"><path d="M60.847,178.64a4.12,4.12,0,0,0,3.455,4.808,4.521,4.521,0,0,0,5.352-3.138l.739-6.169c-2.427-1.2-1.537,3.771-5.729,2.948C61.785,176.521,61,178.2,60.847,178.64Z" transform="translate(-56.846 -159.373)"/><path d="M53.4,52.9a1.113,1.113,0,0,0-1.375-.628L49,53.19l-1.9-5.207a7.627,7.627,0,0,0,3.634-3.251,6.692,6.692,0,0,0,.4-5.65L46.174,28.627l-13.206,4L33.85,35.9,22.563,33.676,18.841,44.641a6.712,6.712,0,0,0,1.1,5.493,7.838,7.838,0,0,0,4,2.873l-1.274,5.364-3.109-.611a1.1,1.1,0,0,0-1.292.759.994.994,0,0,0,.834,1.177l4.162.819s0,0,.007,0h.015l4.163.819a1.18,1.18,0,0,0,.231.022,1.07,1.07,0,0,0,1.061-.781A1,1,0,0,0,27.9,59.4l-3.111-.613,1.269-5.342c.208.015.416.031.625.031a7.917,7.917,0,0,0,7.83-5.831l.882-6.024.579,2.146a7.967,7.967,0,0,0,7.6,4.992,8.675,8.675,0,0,0,1.473-.138l1.9,5.192-3.017.913a.973.973,0,0,0-.69,1.252,1.086,1.086,0,0,0,1.032.678,1.164,1.164,0,0,0,.343-.051l8.1-2.453A.974.974,0,0,0,53.4,52.9ZM32.373,47.308a5.935,5.935,0,0,1-6.934,4.067h0a5.82,5.82,0,0,1-3.671-2.313,4.868,4.868,0,0,1-.823-3.918L24.052,36,33.746,37.9Zm5.69-4.088-2.5-9.289,9.412-2.852,4.14,8.708a4.857,4.857,0,0,1-.319,4.057,5.669,5.669,0,0,1-3.377,2.662,6.3,6.3,0,0,1-1.845.275A5.792,5.792,0,0,1,38.063,43.22Z" transform="translate(-18.236 -26.228)"/><path d="M241.679,126.978c-.209-.423-1.184-2.015-3.978-1.169-4.072,1.233-3.778-3.8-6.045-2.366l1.464,6.058a4.619,4.619,0,0,0,5.691,2.6A4.036,4.036,0,0,0,241.679,126.978Z" transform="translate(-212.012 -112.86)"/><path d="M124.178,2.239A1.166,1.166,0,0,0,125.34,1.06,1.193,1.193,0,0,0,124.046,0a1.165,1.165,0,0,0-1.164,1.18A1.2,1.2,0,0,0,124.178,2.239Z" transform="translate(-113.249 0)"/><path d="M175.833,25.58a1.165,1.165,0,0,0,1.161-1.18,1.194,1.194,0,0,0-1.294-1.058,1.166,1.166,0,0,0-1.164,1.179A1.2,1.2,0,0,0,175.833,25.58Z" transform="translate(-160.149 -21.385)"/><path d="M129.527,48.373a1.193,1.193,0,0,0,1.294,1.058,1.166,1.166,0,0,0,1.164-1.18,1.2,1.2,0,0,0-1.3-1.058A1.165,1.165,0,0,0,129.527,48.373Z" transform="translate(-119.282 -43.236)"/></g></g><g transform="translate(103.558 65.187)"><g transform="translate(0 0)"><path d="M60.847,178.64a4.12,4.12,0,0,0,3.455,4.808,4.521,4.521,0,0,0,5.352-3.138l.739-6.169c-2.427-1.2-1.537,3.771-5.729,2.948C61.785,176.521,61,178.2,60.847,178.64Z" transform="translate(-56.846 -159.373)"/><path d="M53.4,52.9a1.113,1.113,0,0,0-1.375-.628L49,53.19l-1.9-5.207a7.627,7.627,0,0,0,3.634-3.251,6.692,6.692,0,0,0,.4-5.65L46.174,28.627l-13.206,4L33.85,35.9,22.563,33.676,18.841,44.641a6.712,6.712,0,0,0,1.1,5.493,7.838,7.838,0,0,0,4,2.873l-1.274,5.364-3.109-.611a1.1,1.1,0,0,0-1.292.759.994.994,0,0,0,.834,1.177l4.162.819s0,0,.007,0h.015l4.163.819a1.18,1.18,0,0,0,.231.022,1.07,1.07,0,0,0,1.061-.781A1,1,0,0,0,27.9,59.4l-3.111-.613,1.269-5.342c.208.015.416.031.625.031a7.917,7.917,0,0,0,7.83-5.831l.882-6.024.579,2.146a7.967,7.967,0,0,0,7.6,4.992,8.675,8.675,0,0,0,1.473-.138l1.9,5.192-3.017.913a.973.973,0,0,0-.69,1.252,1.086,1.086,0,0,0,1.032.678,1.164,1.164,0,0,0,.343-.051l8.1-2.453A.974.974,0,0,0,53.4,52.9ZM32.373,47.308a5.935,5.935,0,0,1-6.934,4.067h0a5.82,5.82,0,0,1-3.671-2.313,4.868,4.868,0,0,1-.823-3.918L24.052,36,33.746,37.9Zm5.69-4.088-2.5-9.289,9.412-2.852,4.14,8.708a4.857,4.857,0,0,1-.319,4.057,5.669,5.669,0,0,1-3.377,2.662,6.3,6.3,0,0,1-1.845.275A5.792,5.792,0,0,1,38.063,43.22Z" transform="translate(-18.236 -26.228)"/><path d="M241.679,126.978c-.209-.423-1.184-2.015-3.978-1.169-4.072,1.233-3.778-3.8-6.045-2.366l1.464,6.058a4.619,4.619,0,0,0,5.691,2.6A4.036,4.036,0,0,0,241.679,126.978Z" transform="translate(-212.012 -112.86)"/><path d="M124.178,2.239A1.166,1.166,0,0,0,125.34,1.06,1.193,1.193,0,0,0,124.046,0a1.165,1.165,0,0,0-1.164,1.18A1.2,1.2,0,0,0,124.178,2.239Z" transform="translate(-113.249 0)"/><path d="M175.833,25.58a1.165,1.165,0,0,0,1.161-1.18,1.194,1.194,0,0,0-1.294-1.058,1.166,1.166,0,0,0-1.164,1.179A1.2,1.2,0,0,0,175.833,25.58Z" transform="translate(-160.149 -21.385)"/><path d="M129.527,48.373a1.193,1.193,0,0,0,1.294,1.058,1.166,1.166,0,0,0,1.164-1.18,1.2,1.2,0,0,0-1.3-1.058A1.165,1.165,0,0,0,129.527,48.373Z" transform="translate(-119.282 -43.236)"/></g></g><g transform="translate(83.582 18.39)"><g transform="translate(0 0)"><path class="c" d="M12.145,362.311a4.63,4.63,0,0,0,4.031-2.224,4.876,4.876,0,0,1-1.6-2.332,5.888,5.888,0,0,1-1.16.118,5.508,5.508,0,0,1-4.668-2.46,3.925,3.925,0,0,0-1.156,2.752A4.37,4.37,0,0,0,12.145,362.311Z" transform="translate(-7.59 -333.058)"/><path class="c" d="M26.324,262.342a3.858,3.858,0,0,0,.182.356,4.629,4.629,0,0,0,4.035,2.23,4.976,4.976,0,0,0,1-.1,4.352,4.352,0,0,1,.3-2.265c.05-.123.1-.243.164-.361s.12-.231.189-.342a5.09,5.09,0,0,1,1.258-1.38,5.343,5.343,0,0,1-4.873-3.429,4.138,4.138,0,0,0-2.582,3.733,3.8,3.8,0,0,0,.191,1.185A4.011,4.011,0,0,0,26.324,262.342Z" transform="translate(-24.716 -240.882)"/><path class="c" d="M121.524,309.836a4.624,4.624,0,0,1-.415-.984h0q-.211.062-.412.142a4.44,4.44,0,0,0-2.216,1.878,3.879,3.879,0,0,0-.337.761,3.794,3.794,0,0,0-.185,1.162c0,.112.009.221.019.331a3.821,3.821,0,0,0,.056.4,3.68,3.68,0,0,0,.094.375,4.073,4.073,0,0,0,1.133,1.8,4.331,4.331,0,0,0,.341.288q.168.128.35.241a4.842,4.842,0,0,0,2.562.721,4.37,4.37,0,0,0,4.554-4.148c0-.115-.009-.228-.019-.341a5.935,5.935,0,0,1-.724.05A5.48,5.48,0,0,1,121.524,309.836Z" transform="translate(-110.332 -289.427)"/><path class="c" d="M72.063,190.169c.029.126.065.25.1.372a4.529,4.529,0,0,0,4.357,2.943,4.948,4.948,0,0,0,1.181-.147q.2-.051.4-.117l.03-.01c-.012-.133-.022-.267-.022-.4a4.49,4.49,0,0,1,.029-.509,4.748,4.748,0,0,1,1.609-3.011,4.617,4.617,0,0,1-.98-2.43,5.8,5.8,0,0,1-2.249.453,5.716,5.716,0,0,1-3.169-.946,3.964,3.964,0,0,0-1.385,2.972,3.776,3.776,0,0,0,.029.453A3.635,3.635,0,0,0,72.063,190.169Z" transform="translate(-67.525 -174.642)"/><path class="c" d="M179.082,249.1a4.6,4.6,0,0,0,2.133-1.332,4.746,4.746,0,0,1-1.941-3.77c0-.127.011-.252.021-.376a5.893,5.893,0,0,1-.976.085,5.79,5.79,0,0,1-2.473-.551c-.129-.061-.254-.128-.377-.2s-.25-.149-.369-.231a5.3,5.3,0,0,1-.636-.5,3.958,3.958,0,0,0-1.334,2.931c0,.01,0,.019,0,.029,0,.105.008.209.017.312,0,.041.006.082.011.122.011.087.027.172.043.258.01.049.017.1.028.145.018.078.042.153.065.23a4.511,4.511,0,0,0,4.388,3.052,5,5,0,0,0,.577-.037c.141-.016.28-.037.417-.065S178.95,249.135,179.082,249.1Z" transform="translate(-161.696 -226.986)"/><path class="c" d="M73.673,64.7q.175.128.364.24a4.905,4.905,0,0,0,4.736.13c.008-.082.022-.162.035-.242.021-.137.047-.272.08-.4s.065-.253.108-.376a5,5,0,0,1,2.08-2.567s0-.007,0-.011a4.574,4.574,0,0,0-9.109,0,3.964,3.964,0,0,0,1.385,2.972C73.455,64.529,73.561,64.616,73.673,64.7Z" transform="translate(-67.522 -53.714)"/><path class="c" d="M182.512,10.655c-.011.035-.02.07-.03.1a3.76,3.76,0,0,0-.093.412c-.007.039-.015.078-.02.118-.016.117-.025.236-.03.356,0,.049-.008.1-.008.146,0,0,0,.008,0,.011a3.869,3.869,0,0,0,.809,2.353c.08.1.163.206.253.3s.186.194.287.285c.042.037.086.071.13.107a4.515,4.515,0,0,0,.4.3q.187.124.387.231a4.86,4.86,0,0,0,2.285.565,4.961,4.961,0,0,0,1.122-.132,4.647,4.647,0,0,1,.538-1.229c.07-.111.141-.222.219-.329s.165-.207.252-.307a5.424,5.424,0,0,1,2.37-1.556,3.79,3.79,0,0,0,.052-.6,3.944,3.944,0,0,0-1.265-2.86c.057-.131.111-.262.173-.389s.126-.238.191-.356c1.656-3.031,4.887-4.847,8.289-6.141,1.316-.5.739-2.48-.6-1.972-4.017,1.529-7.614,3.595-9.609,7.071-.065.112-.123.23-.185.345s-.127.228-.185.347a4.941,4.941,0,0,0-1.367-.192,4.863,4.863,0,0,0-2.25.546,4.679,4.679,0,0,0-.467.28,4.483,4.483,0,0,0-.532.419A4.087,4.087,0,0,0,182.512,10.655Z" transform="translate(-170.263 -0.001)"/><path class="c" d="M275.864,211.74q.161.127.335.24t.351.208a4.859,4.859,0,0,0,2.3.571,4.166,4.166,0,1,0,0-8.3,4.961,4.961,0,0,0-1.122.132c-.161.037-.318.082-.472.134a4.725,4.725,0,0,0-.533.216A4.528,4.528,0,0,0,275.313,206c-.088.1-.172.2-.25.307s-.155.22-.223.335a3.956,3.956,0,0,0-.219.43,3.952,3.952,0,0,0-.277.946,3.8,3.8,0,0,0-.052.6A4,4,0,0,0,275.864,211.74Z" transform="translate(-255.872 -191.604)"/><path class="c" d="M339.946,84.91s-3.482-9.325-7.635-4.705S337.045,86.7,339.946,84.91Z" transform="translate(-308.873 -73.956)"/></g></g><g transform="translate(210.269 36.103)"><g transform="translate(0 0)"><path class="c" d="M12.145,362.311a4.63,4.63,0,0,0,4.031-2.224,4.876,4.876,0,0,1-1.6-2.332,5.888,5.888,0,0,1-1.16.118,5.508,5.508,0,0,1-4.668-2.46,3.925,3.925,0,0,0-1.156,2.752A4.37,4.37,0,0,0,12.145,362.311Z" transform="translate(-7.59 -333.058)"/><path class="c" d="M26.324,262.342a3.858,3.858,0,0,0,.182.356,4.629,4.629,0,0,0,4.035,2.23,4.976,4.976,0,0,0,1-.1,4.352,4.352,0,0,1,.3-2.265c.05-.123.1-.243.164-.361s.12-.231.189-.342a5.09,5.09,0,0,1,1.258-1.38,5.343,5.343,0,0,1-4.873-3.429,4.138,4.138,0,0,0-2.582,3.733,3.8,3.8,0,0,0,.191,1.185A4.011,4.011,0,0,0,26.324,262.342Z" transform="translate(-24.716 -240.882)"/><path class="c" d="M121.524,309.836a4.624,4.624,0,0,1-.415-.984h0q-.211.062-.412.142a4.44,4.44,0,0,0-2.216,1.878,3.879,3.879,0,0,0-.337.761,3.794,3.794,0,0,0-.185,1.162c0,.112.009.221.019.331a3.821,3.821,0,0,0,.056.4,3.68,3.68,0,0,0,.094.375,4.073,4.073,0,0,0,1.133,1.8,4.331,4.331,0,0,0,.341.288q.168.128.35.241a4.842,4.842,0,0,0,2.562.721,4.37,4.37,0,0,0,4.554-4.148c0-.115-.009-.228-.019-.341a5.935,5.935,0,0,1-.724.05A5.48,5.48,0,0,1,121.524,309.836Z" transform="translate(-110.332 -289.427)"/><path class="c" d="M72.063,190.169c.029.126.065.25.1.372a4.529,4.529,0,0,0,4.357,2.943,4.948,4.948,0,0,0,1.181-.147q.2-.051.4-.117l.03-.01c-.012-.133-.022-.267-.022-.4a4.49,4.49,0,0,1,.029-.509,4.748,4.748,0,0,1,1.609-3.011,4.617,4.617,0,0,1-.98-2.43,5.8,5.8,0,0,1-2.249.453,5.716,5.716,0,0,1-3.169-.946,3.964,3.964,0,0,0-1.385,2.972,3.776,3.776,0,0,0,.029.453A3.635,3.635,0,0,0,72.063,190.169Z" transform="translate(-67.525 -174.642)"/><path class="c" d="M179.082,249.1a4.6,4.6,0,0,0,2.133-1.332,4.746,4.746,0,0,1-1.941-3.77c0-.127.011-.252.021-.376a5.893,5.893,0,0,1-.976.085,5.79,5.79,0,0,1-2.473-.551c-.129-.061-.254-.128-.377-.2s-.25-.149-.369-.231a5.3,5.3,0,0,1-.636-.5,3.958,3.958,0,0,0-1.334,2.931c0,.01,0,.019,0,.029,0,.105.008.209.017.312,0,.041.006.082.011.122.011.087.027.172.043.258.01.049.017.1.028.145.018.078.042.153.065.23a4.511,4.511,0,0,0,4.388,3.052,5,5,0,0,0,.577-.037c.141-.016.28-.037.417-.065S178.95,249.135,179.082,249.1Z" transform="translate(-161.696 -226.986)"/><path class="c" d="M73.673,64.7q.175.128.364.24a4.905,4.905,0,0,0,4.736.13c.008-.082.022-.162.035-.242.021-.137.047-.272.08-.4s.065-.253.108-.376a5,5,0,0,1,2.08-2.567s0-.007,0-.011a4.574,4.574,0,0,0-9.109,0,3.964,3.964,0,0,0,1.385,2.972C73.455,64.529,73.561,64.616,73.673,64.7Z" transform="translate(-67.522 -53.714)"/><path class="c" d="M182.512,10.655c-.011.035-.02.07-.03.1a3.76,3.76,0,0,0-.093.412c-.007.039-.015.078-.02.118-.016.117-.025.236-.03.356,0,.049-.008.1-.008.146,0,0,0,.008,0,.011a3.869,3.869,0,0,0,.809,2.353c.08.1.163.206.253.3s.186.194.287.285c.042.037.086.071.13.107a4.515,4.515,0,0,0,.4.3q.187.124.387.231a4.86,4.86,0,0,0,2.285.565,4.961,4.961,0,0,0,1.122-.132,4.647,4.647,0,0,1,.538-1.229c.07-.111.141-.222.219-.329s.165-.207.252-.307a5.424,5.424,0,0,1,2.37-1.556,3.79,3.79,0,0,0,.052-.6,3.944,3.944,0,0,0-1.265-2.86c.057-.131.111-.262.173-.389s.126-.238.191-.356c1.656-3.031,4.887-4.847,8.289-6.141,1.316-.5.739-2.48-.6-1.972-4.017,1.529-7.614,3.595-9.609,7.071-.065.112-.123.23-.185.345s-.127.228-.185.347a4.941,4.941,0,0,0-1.367-.192,4.863,4.863,0,0,0-2.25.546,4.679,4.679,0,0,0-.467.28,4.483,4.483,0,0,0-.532.419A4.087,4.087,0,0,0,182.512,10.655Z" transform="translate(-170.263 -0.001)"/><path class="c" d="M275.864,211.74q.161.127.335.24t.351.208a4.859,4.859,0,0,0,2.3.571,4.166,4.166,0,1,0,0-8.3,4.961,4.961,0,0,0-1.122.132c-.161.037-.318.082-.472.134a4.725,4.725,0,0,0-.533.216A4.528,4.528,0,0,0,275.313,206c-.088.1-.172.2-.25.307s-.155.22-.223.335a3.956,3.956,0,0,0-.219.43,3.952,3.952,0,0,0-.277.946,3.8,3.8,0,0,0-.052.6A4,4,0,0,0,275.864,211.74Z" transform="translate(-255.872 -191.604)"/><path class="c" d="M339.946,84.91s-3.482-9.325-7.635-4.705S337.045,86.7,339.946,84.91Z" transform="translate(-308.873 -73.956)"/></g></g><g transform="translate(156.651 36.178)"><path d="M51.559.043a1.765,1.765,0,0,0-1.423.688H48.666A2.45,2.45,0,0,0,46.9,0H43.182a2.454,2.454,0,0,0-1.763.732H39.95A1.752,1.752,0,0,0,38.5,0a1.645,1.645,0,0,0-1.716,1.563V2.7A1.645,1.645,0,0,0,38.5,4.263a1.768,1.768,0,0,0,1.383-.645h1.573a2.459,2.459,0,0,0,1.724.688H44.2V10.06h-.817v.83H44.2V11.7h-.936v.831h.817v.809h-.817v.83h.817v.809h-.937v.83h.817v.809h-.7v.83h.817v.809h-.937v.829H44.78v-.83h.937v-.83H44.9v-.809h.7v-.831H44.78v-.809h.937v-.83H44.9v-.809h.817v-.831H44.9V11.7h.937v-.83H45.02V10.3H45.5V4.306h1.4a2.463,2.463,0,0,0,1.724-.688h1.51a1.765,1.765,0,0,0,1.423.688,1.645,1.645,0,0,0,1.716-1.563V1.607A1.647,1.647,0,0,0,51.559.043Z" transform="translate(-36.786)"/></g><g transform="matrix(0.914, -0.407, 0.407, 0.914, 228.273, 94.153)"><path d="M14.557.534a1.593,1.593,0,0,0-1.377.652l-1.449-.049a2.558,2.558,0,0,0-1.764-.8L6.3.212A2.219,2.219,0,0,0,4.591.9L3.144.849A1.853,1.853,0,0,0,1.691.057,1.511,1.511,0,0,0,.057,1.589L.1,2.744A1.787,1.787,0,0,0,1.846,4.389a1.6,1.6,0,0,0,1.339-.61l1.55.052a2.56,2.56,0,0,0,1.723.757l1.007.034.21,5.847-.8-.027.03.844.8.027.029.822L6.812,12.1l.03.845.8.027.029.822-.8-.027.03.844.8.027.029.822-.923-.031.03.844.8.027.029.822L6.991,17.1l.03.844.8.027.029.822-.923-.031.03.843,1.609.054-.03-.844.923.031-.03-.844-.8-.027L8.6,17.156l.687.023-.03-.845-.8-.027-.029-.822.923.031-.03-.844-.8-.027-.029-.822.8.027-.03-.845-.8-.027-.029-.822.923.031-.03-.844-.8-.027-.021-.577.474.016L8.743,4.665l1.381.047A2.229,2.229,0,0,0,11.8,4.069l1.487.05a1.861,1.861,0,0,0,1.427.747,1.511,1.511,0,0,0,1.634-1.532L16.3,2.18A1.789,1.789,0,0,0,14.557.534Z" transform="translate(0 0)"/></g></g></g></g></g></svg>